<svg width="255" height="78" viewBox="0 0 255 78" fill="none" xmlns="http://www.w3.org/2000/svg">
<path d="M81.5336 71.6205C81.5349 71.7186 81.5362 71.8167 81.5408 71.9834C81.5736 72.1807 81.6033 72.3092 81.633 72.4377C81.6386 72.566 81.6443 72.6946 81.6521 72.889C81.6789 73.0552 81.7037 73.1556 81.7285 73.256C81.7341 73.3848 81.7396 73.5139 81.7481 73.7144C81.8348 74.399 81.919 75.0115 82.0028 75.6243C82.0013 75.6659 81.9995 75.7072 81.9987 75.8151C82.032 76.0686 82.0643 76.2559 82.0963 76.4433C82.0976 76.5125 82.0986 76.582 82.1017 76.7193C82.135 76.9449 82.166 77.1023 82.1972 77.2601C82.1918 77.3303 82.1864 77.4005 82.1345 77.5063C81.9631 77.5432 81.8384 77.5458 81.7135 77.5458C72.728 77.5458 63.7425 77.5458 54.757 77.5453C54.5541 77.5453 54.3514 77.5396 54.1465 77.4999C54.1416 77.3664 54.1388 77.2693 54.1571 77.1442C54.1914 76.9227 54.2048 76.7299 54.2281 76.5071C54.2366 76.4366 54.235 76.3956 54.2526 76.3246C54.3295 75.7077 54.3873 75.1205 54.4619 74.4981C54.4867 74.3337 54.4944 74.2046 54.5239 74.0497C54.5492 73.8902 54.5528 73.7565 54.5706 73.5882C54.5887 73.4548 54.5925 73.3556 54.6176 73.2294C54.6504 73.0394 54.6622 72.8766 54.6842 72.6804C54.694 72.5774 54.6932 72.508 54.7133 72.4101C54.7479 72.1892 54.7621 71.9969 54.7864 71.7746C54.7946 71.7036 54.7928 71.6623 54.8104 71.5916C54.8424 71.3699 54.8553 71.1776 54.8788 70.9558C54.8886 70.8854 54.8878 70.8441 54.9059 70.7728C54.9614 70.3379 54.9983 69.9332 55.0492 69.499C55.0623 69.4272 55.0613 69.3846 55.0817 69.3152C55.1088 69.1255 55.1145 68.9626 55.1348 68.7656C55.1537 68.6325 55.1581 68.5336 55.1831 68.4105C55.2056 68.2811 55.2071 68.1766 55.2247 68.0364C55.2469 67.873 55.2531 67.745 55.2797 67.5891C55.3109 67.3981 55.3212 67.235 55.3434 67.0388C55.355 66.9368 55.3548 66.8676 55.3746 66.7701C55.4051 66.5788 55.4157 66.4159 55.4381 66.22C55.45 66.1183 55.45 66.0491 55.4691 65.9495C55.5256 65.5145 55.5636 65.1101 55.6152 64.6728C55.6299 64.5706 55.6307 64.5006 55.6524 64.4064C55.6736 64.2771 55.6738 64.1725 55.6898 64.0321C55.7112 63.8682 55.7172 63.7397 55.7448 63.5874C55.7714 63.4586 55.7765 63.3538 55.7938 63.2136C55.8083 63.0794 55.8098 62.9805 55.8326 62.8556C55.8615 62.6963 55.8695 62.5631 55.8911 62.3951C55.9072 62.2619 55.9092 62.1633 55.9309 62.0363C55.9608 61.8453 55.9712 61.6829 55.9939 61.4855C56.0089 61.3528 56.0117 61.2552 56.0339 61.1274C56.1113 60.5105 56.1697 59.9233 56.2445 59.3007C56.2677 59.136 56.2742 59.0069 56.3026 58.8541C56.3263 58.7258 56.3284 58.6213 56.346 58.4811C56.3663 58.3167 56.3713 58.1879 56.3976 58.0333C56.4268 57.874 56.4342 57.7406 56.4549 57.572C56.4701 57.4385 56.4724 57.3402 56.4952 57.214C56.5259 57.0235 56.5354 56.8603 56.5576 56.6647C56.5708 56.5625 56.5716 56.4933 56.5917 56.3947C56.6247 56.1732 56.6382 55.9807 56.6624 55.7589C56.6715 55.6882 56.6696 55.6469 56.6864 55.5754C56.7339 55.2011 56.7628 54.857 56.8083 54.4776C56.8317 54.3134 56.8387 54.1846 56.8679 54.0292C56.8989 53.8387 56.9074 53.6751 56.9293 53.4786C56.942 53.3769 56.9414 53.3078 56.9624 53.2122C56.9918 53.052 57 52.918 57.0204 52.7487C57.0344 52.6155 57.0362 52.5171 57.0589 52.3914C57.0909 52.2009 57.1017 52.0378 57.1239 51.8416C57.135 51.7394 57.1348 51.6699 57.1547 51.5719C57.1887 51.3504 57.2027 51.1576 57.2269 50.9356C57.2354 50.8651 57.2336 50.8241 57.2496 50.7528C57.2943 50.4082 57.3211 50.0938 57.3593 49.7482C57.3818 49.5851 57.3929 49.4534 57.4254 49.296C57.451 49.1372 57.4551 49.0043 57.4742 48.8365C57.4925 48.7023 57.4959 48.6029 57.5209 48.4777C57.5465 48.3187 57.5506 48.1855 57.5697 48.0177C57.5888 47.884 57.593 47.7849 57.618 47.6581C57.6484 47.4679 57.6585 47.3053 57.6802 47.1096C57.6928 47.0069 57.6936 46.9375 57.714 46.8389C57.7465 46.6176 57.7594 46.4253 57.7829 46.2036C57.7922 46.1324 57.7909 46.0908 57.808 46.0198C57.8387 45.7981 57.8511 45.606 57.8759 45.3851C57.8875 45.3144 57.8867 45.2728 57.9048 45.2023C57.9316 45.0108 57.9396 44.8482 57.9608 44.6561C57.9727 44.5846 57.9714 44.5423 57.9907 44.4755C58.0111 44.3472 58.0111 44.2431 58.0294 44.1094C58.0565 44.0578 58.0653 44.0361 58.1185 44.017C59.0059 44.0188 59.8487 44.017 60.6917 44.0168C66.5446 44.016 72.3976 44.0152 78.2531 44.0258C78.2554 44.0372 78.2792 44.0387 78.2766 44.0774C78.329 44.4873 78.384 44.8588 78.4389 45.2302C78.4379 45.2718 78.4371 45.3131 78.4382 45.4207C78.4717 45.6742 78.5037 45.8613 78.5357 46.0485C78.536 46.1182 78.5365 46.1876 78.5399 46.3252C78.5726 46.551 78.6026 46.7088 78.6328 46.8665C78.6336 46.9362 78.6343 47.0059 78.6372 47.1437C78.6692 47.3696 78.6991 47.527 78.7291 47.6845C78.7335 47.7841 78.7376 47.8835 78.7453 48.0495C78.7732 48.2454 78.798 48.3744 78.8228 48.5038C78.8204 48.5458 78.8184 48.5879 78.8192 48.6981C78.8801 49.1653 78.9379 49.5649 78.9957 49.9642C78.9965 50.0332 78.9975 50.1021 79.0011 50.2389C79.0339 50.4653 79.0639 50.6235 79.0938 50.782C79.0956 50.8801 79.0977 50.9779 79.1021 51.1459C79.1348 51.3739 79.1653 51.5316 79.1955 51.6893C79.1989 51.7884 79.2022 51.8875 79.2087 52.0515C79.2378 52.2167 79.2636 52.3171 79.2895 52.4175C79.2972 52.5757 79.3047 52.7339 79.3148 52.9557C79.338 53.092 79.3589 53.1648 79.3795 53.2375C79.3814 53.3078 79.3829 53.3777 79.3886 53.5179C79.4482 53.9879 79.5037 54.3875 79.5595 54.7871C79.5587 54.8284 79.5579 54.8694 79.56 54.9765C79.594 55.2298 79.6255 55.4172 79.6573 55.6048C79.6555 55.6461 79.6539 55.6872 79.6537 55.7951C79.6875 56.0488 79.7197 56.2362 79.752 56.4233C79.7528 56.4925 79.7536 56.5617 79.7561 56.6993C79.7887 56.9257 79.8189 57.0834 79.8491 57.2413C79.854 57.3402 79.8586 57.4388 79.8651 57.6045C79.8924 57.801 79.918 57.9305 79.9438 58.0601C79.9423 58.1019 79.9404 58.1437 79.9415 58.2516C79.9753 58.5046 80.0065 58.6918 80.0378 58.8789C80.0362 58.9207 80.0344 58.9628 80.0357 59.0725C80.0994 59.5696 80.1601 59.9986 80.2208 60.4277C80.219 60.469 80.2174 60.5103 80.2169 60.6179C80.2507 60.8714 80.2835 61.0585 80.3163 61.2457C80.3183 61.3443 80.3201 61.4429 80.3258 61.6094C80.3583 61.8058 80.3867 61.9346 80.4151 62.0631C80.4177 62.1623 80.4203 62.2611 80.426 62.4276C80.4562 62.624 80.4833 62.7528 80.5106 62.8817C80.5145 62.981 80.5184 63.0804 80.5251 63.2516C80.6113 63.9356 80.6944 64.5484 80.7778 65.1612C80.7762 65.2025 80.7747 65.2435 80.7757 65.3509C80.8098 65.6046 80.8415 65.792 80.873 65.9797C80.8754 66.0778 80.8777 66.1756 80.8831 66.3434C80.9167 66.5708 80.9476 66.7283 80.9784 66.886C80.9791 66.9559 80.9802 67.0256 80.983 67.1637C81.0142 67.3893 81.0437 67.547 81.0728 67.7047C81.0728 67.7471 81.0728 67.7894 81.0752 67.8971C81.1082 68.1495 81.1384 68.3361 81.1686 68.523C81.1673 68.5653 81.166 68.6077 81.167 68.7179C81.2267 69.1851 81.2837 69.5847 81.3408 69.9843C81.341 70.0532 81.3415 70.1224 81.3457 70.2592C81.3792 70.4853 81.4089 70.6435 81.4386 70.8017C81.4409 70.9001 81.4435 70.9982 81.4487 71.1644C81.4789 71.3616 81.5062 71.4909 81.5336 71.6205ZM65.7241 57.3368C68.0609 57.3368 70.3976 57.3368 72.7533 57.3368C72.768 57.1704 72.785 57.0679 72.785 56.9651C72.7861 55.919 72.7977 54.8723 72.7806 53.8263C72.743 51.5207 70.8623 49.6005 68.4911 49.4299C65.88 49.242 63.5822 51.2768 63.5442 53.823C63.5285 54.8689 63.5396 55.9153 63.5422 56.9618C63.5424 57.0769 63.5682 57.1923 63.5858 57.3368C64.2897 57.3368 64.96 57.3368 65.7241 57.3368Z" fill="#FFD301"/>
<path d="M3.09364 54.6033C3.11042 54.5057 3.12694 54.4084 3.15894 54.2471C3.18527 54.0202 3.19586 53.8571 3.2067 53.6939C3.21831 53.6255 3.22993 53.5571 3.25471 53.425C3.28181 53.1689 3.29549 52.9769 3.30891 52.7846C3.31795 52.7443 3.32672 52.7038 3.34944 52.6028C3.37757 52.3501 3.39151 52.1581 3.40545 51.9658C3.41423 51.9255 3.423 51.8855 3.44598 51.7838C3.49141 51.3483 3.52264 50.9738 3.55387 50.5995C3.57426 50.5025 3.59466 50.4057 3.62976 50.2451C3.64705 50.0476 3.64964 49.9139 3.65222 49.7802C3.67054 49.6834 3.68913 49.5866 3.72423 49.4253C3.74979 49.1974 3.75882 49.0342 3.76786 48.8708C3.78024 48.8027 3.79264 48.7346 3.82051 48.6042C3.84581 48.3786 3.85588 48.2155 3.86594 48.0521C3.8773 47.9839 3.88891 47.9158 3.91473 47.7844C3.9426 47.5281 3.95551 47.3355 3.96867 47.1427C3.97797 47.1027 3.98726 47.0627 4.01049 46.9612C4.06186 46.4948 4.09903 46.0895 4.1491 45.6549C4.1602 45.5834 4.1584 45.541 4.17776 45.4749C4.1997 45.3472 4.20021 45.2434 4.21673 45.1032C4.241 44.9084 4.24977 44.7499 4.28023 44.5658C4.3094 44.4063 4.31688 44.2726 4.33753 44.1118C4.35457 44.0656 4.35895 44.0462 4.40774 44.025C4.53009 44.0214 4.60805 44.0181 4.68626 44.0181C11.1481 44.0176 17.6097 44.0176 24.0715 44.0176C24.1497 44.0176 24.2282 44.024 24.3057 44.0178C24.4745 44.0041 24.5586 44.1069 24.6255 44.2664C24.634 44.4001 24.6479 44.4969 24.6531 44.6291C24.6737 44.8219 24.7032 44.9793 24.7269 45.1716C24.7321 45.2752 24.7427 45.3441 24.7452 45.4484C24.7679 45.6407 24.7984 45.7979 24.8234 45.992C24.8363 46.127 24.8549 46.2248 24.8601 46.3549C24.8733 46.5157 24.8993 46.6443 24.9195 46.8082C24.9303 46.9127 24.9473 46.9816 24.9517 47.0849C24.9659 47.2767 24.9923 47.4344 25.0126 47.6238C25.0173 47.6966 25.0281 47.7379 25.0292 47.8174C25.0772 48.2547 25.135 48.6538 25.1874 49.0835C25.1908 49.155 25.199 49.1956 25.199 49.273C25.2246 49.4963 25.2586 49.6832 25.286 49.9044C25.2901 50.0076 25.3007 50.0766 25.3023 50.1806C25.3245 50.3734 25.3557 50.5309 25.3818 50.727C25.3954 50.8922 25.4143 51.0187 25.421 51.1757C25.4331 51.3063 25.4574 51.4069 25.4765 51.5458C25.4922 51.7113 25.5126 51.838 25.5201 51.997C25.5333 52.1573 25.5594 52.2853 25.5797 52.4456C25.5862 52.5192 25.5978 52.5605 25.5983 52.64C25.6435 53.077 25.7003 53.4761 25.7519 53.9064C25.756 53.9779 25.7656 54.0184 25.7664 54.0956C25.7899 54.3191 25.8219 54.5063 25.8487 54.728C25.8552 54.8312 25.8665 54.8996 25.8688 55.0034C25.8892 55.1962 25.9189 55.3539 25.944 55.5465C25.9512 55.6498 25.9631 55.7184 25.9659 55.8222C25.9863 56.0148 26.016 56.1722 26.04 56.3668C26.0526 56.5016 26.0707 56.5992 26.0764 56.729C26.0895 56.8903 26.1153 57.0191 26.1345 57.1869C26.1515 57.3526 26.175 57.4799 26.1858 57.6428C26.2222 58.0183 26.271 58.3583 26.3154 58.7331C26.3239 58.8358 26.3371 58.904 26.3409 59.0051C26.358 59.168 26.3841 59.2976 26.405 59.4618C26.4109 59.5642 26.4223 59.6324 26.4243 59.7372C26.4483 59.9605 26.4814 60.1471 26.5082 60.3686C26.5136 60.4721 26.5247 60.5413 26.5265 60.6435C26.5462 60.8053 26.5756 60.9341 26.5988 61.0998C26.6091 61.2341 26.6254 61.3314 26.63 61.4635C26.6481 61.6553 26.6778 61.8125 26.7003 62.0071C26.7132 62.1427 26.7328 62.2408 26.7387 62.3755C26.8076 63.0249 26.8905 63.6375 26.9679 64.2846C26.9752 64.3873 26.9875 64.4555 26.9906 64.5585C27.0105 64.7518 27.0399 64.91 27.0645 65.1049C27.0735 65.2389 27.0874 65.3359 27.0923 65.4663C27.1112 65.6284 27.1393 65.7572 27.1626 65.9242C27.1767 66.0894 27.1959 66.2162 27.2028 66.3752C27.217 66.5362 27.2433 66.6645 27.2643 66.8305C27.2779 66.9658 27.2968 67.0638 27.303 67.1916C27.312 67.3222 27.3339 67.4229 27.3505 67.561C27.3639 67.6955 27.383 67.7928 27.39 67.927C27.4313 68.3333 27.4847 68.7029 27.5335 69.1033C27.5368 69.1751 27.5451 69.2156 27.5446 69.293C27.5686 69.5166 27.6014 69.7037 27.6287 69.9275C27.6388 70.0615 27.654 70.1588 27.6589 70.2889C27.6757 70.4507 27.7031 70.5798 27.7253 70.7458C27.7351 70.88 27.75 70.9776 27.7547 71.1079C27.7725 71.2692 27.8009 71.3975 27.8228 71.5643C27.836 71.7303 27.8556 71.8575 27.8623 72.0147C27.8742 72.1448 27.899 72.2447 27.9178 72.38C27.9279 72.4842 27.9444 72.5532 27.9467 72.6592C27.9873 73.0663 28.0417 73.436 28.091 73.8404C28.0977 73.9429 28.1096 74.0108 28.1127 74.1153C28.1354 74.3389 28.1672 74.526 28.1935 74.7441C28.1966 74.8162 28.2054 74.8569 28.2051 74.9346C28.2294 75.1576 28.2627 75.3443 28.2895 75.5655C28.2942 75.6693 28.3055 75.7382 28.3081 75.8425C28.3306 76.0345 28.362 76.1914 28.3881 76.3835C28.3966 76.4878 28.4106 76.5569 28.4129 76.6615C28.4346 76.8879 28.4676 77.0786 28.4924 77.3029C28.4805 77.4057 28.4772 77.4748 28.4292 77.5438C23.8862 77.5443 19.3882 77.5451 14.8904 77.5453C10.2829 77.5458 5.67538 77.5458 1.06815 77.5451C0.872234 77.5451 0.676318 77.5353 0.445557 77.5288C0.484533 77.2126 0.522219 76.9591 0.545708 76.7046C0.584427 76.2844 0.61437 75.8634 0.647926 75.4426C0.664962 75.3445 0.682257 75.2464 0.715296 75.0851C0.741625 74.8587 0.751434 74.6956 0.761501 74.5327C0.773632 74.4638 0.786021 74.3951 0.813382 74.2645C0.839453 74.04 0.850293 73.8771 0.861392 73.7139C0.873008 73.6455 0.884624 73.5774 0.910178 73.446C0.933409 73.2204 0.942702 73.0575 0.952253 72.8949C0.966966 72.7984 0.981679 72.7021 1.01214 72.5392C1.08622 71.8854 1.14455 71.2981 1.20289 70.7107C1.22457 70.5842 1.24625 70.4574 1.28394 70.2664C1.3033 70.0682 1.30614 69.9342 1.30924 69.8005C1.32627 69.7032 1.34357 69.6059 1.37661 69.4456C1.39984 69.2489 1.40732 69.1152 1.41455 68.9815C1.43004 68.8847 1.44553 68.7879 1.47598 68.6252C1.50257 68.3669 1.5147 68.1743 1.52658 67.9817C1.53509 67.941 1.54361 67.9004 1.56684 67.7985C1.63447 67.3098 1.69306 66.8829 1.73849 66.4547C1.76818 66.1759 1.7785 65.895 1.79735 65.6152C1.80793 65.5745 1.81851 65.5337 1.84458 65.4374C1.86265 65.2771 1.86523 65.1728 1.86756 65.0683C1.8864 64.9418 1.90498 64.815 1.93983 64.624C1.96254 64.426 1.96951 64.2921 1.97622 64.1584C1.99223 64.0618 2.00849 63.965 2.03921 63.8045C2.06089 63.6073 2.0676 63.4733 2.07431 63.3396C2.08928 63.2428 2.104 63.146 2.13368 62.9836C2.16156 62.7255 2.17446 62.5327 2.18711 62.3399C2.1964 62.2999 2.2057 62.2596 2.22867 62.1584C2.30688 61.4499 2.37141 60.8022 2.43594 60.1546C2.45169 60.0862 2.46769 60.0178 2.50022 59.8872C2.52525 59.6618 2.53377 59.4987 2.54229 59.3355C2.55442 59.2669 2.56655 59.1982 2.59469 59.0668C2.62411 58.8115 2.63779 58.619 2.65173 58.4264C2.66025 58.3859 2.66877 58.3454 2.69174 58.2442C2.7222 57.9613 2.73846 57.7393 2.75447 57.5173C2.76247 57.4768 2.77047 57.4365 2.79215 57.3353C2.84481 56.8694 2.88327 56.4647 2.92199 56.0599C2.9318 56.0189 2.94161 55.9778 2.96639 55.8813C2.98213 55.7218 2.98265 55.6175 2.98316 55.5135C3.00484 55.3865 3.02653 55.2595 3.06318 55.0682C3.08331 54.8702 3.08848 54.7368 3.09364 54.6033ZM19.0887 56.1082C19.0854 55.3046 19.1055 54.5001 19.0743 53.6973C18.9638 50.8618 16.0904 48.8283 13.2717 49.5781C11.2529 50.115 9.87943 51.8352 9.8389 53.9064C9.81903 54.9221 9.83271 55.9383 9.83581 56.9543C9.83606 57.0702 9.86497 57.1859 9.88149 57.3069C12.9555 57.3069 15.9936 57.3069 19.0887 57.3069C19.0887 56.9185 19.0887 56.5586 19.0887 56.1082Z" fill="#FFD301"/>
<path d="M39.3825 49.764C39.2601 49.795 39.1381 49.826 38.9563 49.8734C38.7088 49.9803 38.5209 50.0707 38.3327 50.161C38.3327 50.161 38.3185 50.1548 38.2842 50.1618C38.1291 50.2467 38.0083 50.3249 37.8872 50.4029C37.787 50.456 37.6869 50.509 37.5421 50.5882C37.4393 50.6651 37.3813 50.7157 37.3232 50.7666C36.9339 51.1088 36.545 51.4511 36.1188 51.8329C36.0408 51.9343 36.0003 51.9965 35.9598 52.0587C35.8648 52.178 35.7696 52.2972 35.6407 52.4578C35.5739 52.5665 35.5409 52.6341 35.5076 52.7017C35.4668 52.7583 35.426 52.8145 35.3545 52.9157C35.1457 53.3896 34.9676 53.8189 34.7892 54.2479C34.775 54.2871 34.7608 54.3261 34.728 54.4136C34.7038 54.512 34.6981 54.5621 34.6921 54.6121C34.6785 54.6511 34.6648 54.6903 34.6333 54.7889C34.5688 55.2843 34.481 55.7203 34.4805 56.1562C34.472 62.9659 34.4745 69.7755 34.474 76.5851C34.474 76.9037 34.4671 77.2219 34.4635 77.5404C34.4472 77.5433 34.4309 77.5461 34.3499 77.55C32.5629 77.5472 30.841 77.543 29.1133 77.5046C29.088 77.4036 29.0687 77.3373 29.062 77.2343C28.9938 76.6148 28.9133 76.0317 28.8371 75.4143C28.8307 75.312 28.8196 75.2444 28.8173 75.1412C28.7959 74.9476 28.7656 74.7891 28.7404 74.5939C28.7324 74.4607 28.7194 74.3639 28.7151 74.232C28.6936 74.039 28.6634 73.8813 28.6384 73.6889C28.6325 73.5857 28.6219 73.517 28.6196 73.413C28.5971 73.2204 28.5664 73.0632 28.5411 72.8709C28.5328 72.7672 28.5191 72.6985 28.5166 72.5947C28.4987 72.4024 28.4701 72.2447 28.4471 72.0519C28.4381 71.9481 28.4236 71.8792 28.4208 71.7726C28.3767 71.3351 28.3209 70.9355 28.2695 70.5052C28.2639 70.434 28.254 70.3937 28.2528 70.3183C28.2316 70.1247 28.2022 69.9662 28.1776 69.7711C28.1689 69.6377 28.1549 69.5409 28.1503 69.4092C28.1302 69.2161 28.1007 69.0582 28.0767 68.8656C28.0703 68.7623 28.0586 68.6939 28.0553 68.5917C28.0352 68.4296 28.0068 68.3008 27.9835 68.1338C27.9701 67.9689 27.9513 67.8424 27.9448 67.6854C27.9329 67.5546 27.9087 67.4539 27.8906 67.3161C27.8782 67.1818 27.8596 67.0848 27.8534 66.9506C27.8119 66.5435 27.7579 66.1736 27.7094 65.7691C27.7027 65.6666 27.6906 65.5988 27.688 65.4958C27.6673 65.3024 27.6371 65.1439 27.6116 64.9547C27.6082 64.8832 27.6002 64.8427 27.6007 64.7655C27.5773 64.5415 27.545 64.3543 27.5181 64.1303C27.5083 63.9966 27.4931 63.8995 27.4882 63.7694C27.4699 63.6076 27.4412 63.4788 27.4188 63.3133C27.4095 63.1788 27.394 63.0812 27.3896 62.9509C27.3739 62.7888 27.347 62.6597 27.3256 62.4935C27.3129 62.3593 27.2946 62.262 27.2887 62.1321C27.2758 61.9705 27.2505 61.8412 27.2309 61.6773C27.2226 61.5735 27.2081 61.5049 27.205 61.3983C27.1596 60.961 27.1031 60.5614 27.0509 60.1275C27.0427 60.025 27.0303 59.9569 27.0269 59.8542C27.0073 59.6608 26.9781 59.5026 26.9544 59.3074C26.9449 59.1737 26.9299 59.0767 26.9245 58.9463C26.9069 58.7842 26.8798 58.6552 26.8576 58.4892C26.8478 58.355 26.8328 58.2579 26.8277 58.1275C26.8101 57.9657 26.783 57.8369 26.7613 57.6696C26.7458 57.5042 26.7249 57.3774 26.7169 57.2208C26.7066 57.0904 26.6834 56.9902 26.6666 56.8527C26.6532 56.7179 26.633 56.6201 26.6258 56.4861C26.5874 56.1095 26.5362 55.7696 26.4908 55.3989C26.4888 55.3277 26.4813 55.2871 26.4813 55.2087C26.4549 54.9541 26.4209 54.7376 26.3914 54.49C26.3868 54.4185 26.3772 54.378 26.3765 54.3024C26.3548 54.109 26.3243 53.9508 26.3001 53.7585C26.2959 53.6555 26.2861 53.5871 26.2841 53.4831C26.2611 53.2897 26.2301 53.132 26.204 52.9359C26.1896 52.7712 26.1705 52.6449 26.1635 52.4883C26.1522 52.3571 26.1287 52.2562 26.1101 52.1181C26.0956 51.9841 26.0765 51.8873 26.0698 51.7562C26.0569 51.5639 26.0308 51.4057 26.0097 51.216C26.003 51.1434 25.9916 51.1029 25.9903 51.0239C25.9436 50.5861 25.8868 50.1866 25.8352 49.7565C25.8321 49.6855 25.8238 49.645 25.8228 49.5678C25.7967 49.344 25.7637 49.1571 25.7363 48.9336C25.7281 48.7996 25.7139 48.7026 25.7092 48.572C25.6906 48.4099 25.6622 48.2808 25.6395 48.1153C25.6295 47.9811 25.6142 47.8838 25.6091 47.7535C25.5928 47.5914 25.5662 47.4623 25.5456 47.2963C25.5324 47.1618 25.5133 47.0648 25.5066 46.9352C25.495 46.7731 25.4712 46.6435 25.4529 46.4827C25.449 46.4107 25.439 46.3702 25.4382 46.2901C25.3868 45.8222 25.3267 45.3934 25.2707 44.9337C25.2655 44.8627 25.256 44.8224 25.2552 44.7455C25.2314 44.5217 25.1989 44.3346 25.1731 44.1234C25.1801 44.0821 25.1801 44.0653 25.2206 44.0413C25.5143 44.006 25.7678 43.9778 26.0579 43.9536C26.2466 43.9278 26.4033 43.9125 26.5494 43.8661C27.4446 43.5819 28.1348 43.0698 28.5163 42.172C28.6936 41.8599 28.8126 41.5618 28.776 41.1867C28.8026 40.6728 28.8124 40.1984 28.8237 39.6669C29.0759 39.6669 29.2871 39.6669 29.5165 39.686C29.5849 39.7203 29.6348 39.7353 29.7052 39.7722C29.8108 39.8775 29.896 39.9611 29.984 40.076C30.0911 40.2895 30.1956 40.4715 30.2984 40.6847C30.3211 40.7951 30.3454 40.8744 30.3634 40.9918C30.3898 41.496 30.4189 41.9619 30.4564 42.4273C30.4755 42.6645 30.5095 42.9009 30.5335 43.1689C30.5421 43.2396 30.5542 43.2791 30.5586 43.349C30.5939 43.4704 30.6365 43.5617 30.6804 43.6833C30.7586 43.856 30.835 43.9982 30.9135 44.1689C30.9674 44.2502 31.0193 44.3036 31.0813 44.3844C31.2937 44.572 31.4961 44.7318 31.7137 44.9156C31.7976 44.9649 31.8665 44.99 31.9607 45.0313C32.0448 45.0568 32.104 45.0658 32.1904 45.0984C32.4947 45.2181 32.7715 45.2726 33.0807 45.1224C33.3122 45.0349 33.5107 44.9453 33.7392 44.8534C33.8527 44.7708 33.9364 44.6905 34.0461 44.5971C34.1777 44.4512 34.2833 44.3183 34.4172 44.1678C34.7778 43.6885 34.8883 43.1606 34.8741 42.6147C34.8571 41.9774 34.9188 41.3604 35.2053 40.75C35.3178 40.5977 35.4092 40.4673 35.5295 40.3272C35.6397 40.2319 35.7213 40.1465 35.8307 40.053C35.9546 39.9805 36.0506 39.916 36.1789 39.8517C36.3465 39.7947 36.4815 39.7376 36.6518 39.6829C36.7564 39.6741 36.8255 39.6627 36.9303 39.6607C37.0387 39.6633 37.1115 39.6563 37.2181 39.6596C37.3224 39.672 37.3926 39.6746 37.4825 39.695C37.5524 39.7206 37.6033 39.7283 37.6825 39.7523C37.9037 39.8638 38.0963 39.9593 38.2981 40.0814C38.3691 40.1488 38.4305 40.1896 38.5059 40.258C38.6814 40.5079 38.8433 40.7301 39.0036 40.9874C39.1961 41.4658 39.2031 41.9325 39.2106 42.4051C39.2196 42.9613 39.2219 43.5287 39.6004 44.0339C39.6721 44.149 39.7384 44.2367 39.8087 44.3529C39.8693 44.4296 39.9258 44.4781 39.9896 44.5457C40.0131 44.5883 40.0358 44.6025 40.0743 44.6345C40.1473 44.6996 40.2111 44.7378 40.288 44.7979C40.3474 44.84 40.3938 44.8604 40.4563 44.9055C40.5634 44.9647 40.6543 44.999 40.7707 45.0498C40.875 45.0826 40.9537 45.0989 41.0582 45.1384C41.3122 45.1505 41.5401 45.1397 41.8016 45.1301C41.8749 45.1141 41.9149 45.0966 41.9823 45.0873C42.0729 45.0594 42.1364 45.0235 42.2244 44.9861C42.2766 44.9685 42.3044 44.9525 42.3607 44.9363C42.4446 44.8888 42.5004 44.8418 42.5845 44.7855C42.7747 44.6038 42.9366 44.4311 43.1266 44.244C43.2722 43.9562 43.3891 43.6828 43.5207 43.3813C43.5372 43.3119 43.5388 43.2703 43.5612 43.1978C43.592 42.7022 43.6018 42.2376 43.6235 41.7438C43.6361 41.6738 43.6364 41.6325 43.6557 41.5685C43.6851 41.4696 43.6955 41.3935 43.7218 41.2928C43.7479 41.2125 43.7582 41.1563 43.7938 41.0819C43.8782 40.9361 43.9371 40.8086 44.0192 40.6591C44.2724 40.2877 44.6038 40.0458 44.9874 39.8269C45.1546 39.7768 45.2904 39.7252 45.4577 39.6767C45.5307 39.6718 45.572 39.664 45.651 39.6643C45.7909 39.6664 45.8931 39.6604 46.0255 39.6638C46.0978 39.6731 46.1401 39.6728 46.2078 39.6911C46.4354 39.7812 46.6376 39.853 46.8629 39.9467C47.1641 40.2662 47.4419 40.5641 47.7191 40.8943C47.805 41.1475 47.8918 41.3682 47.9751 41.6279C47.9953 41.9763 48.0188 42.2858 48.033 42.6307C48.0283 42.7631 48.0332 42.8602 48.0226 42.9776C48.0291 43.0744 48.0505 43.1508 48.0694 43.259C48.0823 43.3305 48.098 43.37 48.105 43.4366C48.1329 43.5274 48.1695 43.5912 48.2051 43.6774C48.2103 43.7295 48.2245 43.7556 48.2438 43.8088C48.2973 43.9244 48.353 44.0091 48.4163 44.1227C48.6349 44.3655 48.8458 44.5793 49.0727 44.8191C49.2141 44.9025 49.3396 44.9603 49.4929 45.0354C49.6276 45.0772 49.734 45.1015 49.8669 45.1466C50.0915 45.1567 50.2897 45.1456 50.5205 45.1366C50.593 45.1252 50.6333 45.1118 50.7045 45.1046C50.8811 45.0346 51.0269 44.9587 51.1981 44.8787C51.2605 44.8431 51.2977 44.8116 51.364 44.7757C51.4438 44.7171 51.4946 44.6624 51.5687 44.5976C51.634 44.5354 51.6759 44.4838 51.7445 44.4226C51.808 44.3526 51.8444 44.292 51.9004 44.2127C51.9513 44.1317 51.9825 44.0692 52.0385 43.9913C52.0865 43.9084 52.11 43.841 52.1529 43.7471C52.2001 43.6167 52.228 43.5132 52.2775 43.3888C52.3083 43.291 52.3168 43.214 52.3379 43.0966C52.3503 42.6583 52.3501 42.2605 52.3692 41.8336C52.3994 41.6119 52.4102 41.4193 52.4334 41.1976C52.4466 41.1276 52.4474 41.0866 52.4685 41.0205C52.5274 40.8297 52.5661 40.6638 52.6237 40.4699C52.7641 40.123 52.9507 39.8507 53.254 39.6555C53.2654 39.6576 53.2889 39.6535 53.325 39.6625C53.4941 39.6831 53.6267 39.6945 53.8028 39.71C53.8028 40.1209 53.7945 40.5053 53.8066 40.8888C53.8121 41.0618 53.8585 41.2337 53.8825 41.4418C53.9001 41.5453 53.9215 41.6129 53.9324 41.7061C53.9569 41.7936 53.992 41.8555 54.0279 41.95C54.4034 42.9461 55.0795 43.5932 56.1473 43.8792C56.5949 43.9445 57.0146 43.9884 57.4346 44.0695C57.4372 44.1807 57.4395 44.2548 57.4211 44.3534C57.3979 44.4827 57.3956 44.5875 57.3791 44.7282C57.3592 44.8919 57.3533 45.0196 57.3267 45.1724C57.3006 45.3018 57.2947 45.4063 57.2761 45.5473C57.2596 45.7112 57.2557 45.8387 57.2314 45.993C57.2038 46.1533 57.1963 46.287 57.1767 46.4556C57.1612 46.5883 57.1581 46.6864 57.1359 46.8131C57.1057 47.0046 57.0946 47.1673 57.0727 47.3596C57.0629 47.4303 57.0636 47.4716 57.0458 47.5428C57.0138 47.7646 57.0007 47.9566 56.9761 48.1781C56.9661 48.2485 56.9668 48.2898 56.9488 48.3541C56.9338 48.453 56.9377 48.5289 56.9255 48.6406C56.9015 48.8051 56.8938 48.9341 56.8654 49.0875C56.8432 49.216 56.8417 49.32 56.8246 49.4597C56.8029 49.6244 56.7973 49.7532 56.7699 49.9088C56.7379 50.0985 56.7276 50.2617 56.7056 50.4576C56.6935 50.5601 56.693 50.6295 56.6718 50.7268C56.6411 50.9178 56.6313 51.081 56.6099 51.2771C56.5983 51.3794 56.598 51.4485 56.5781 51.5469C56.5448 51.7684 56.5311 51.9607 56.5064 52.1857C56.4947 52.2872 56.4942 52.3558 56.4741 52.4542C56.4207 52.8595 56.3863 53.2348 56.3383 53.6426C56.3236 53.7453 56.3231 53.8155 56.3017 53.9072C56.2831 54.0048 56.2851 54.0806 56.2715 54.1929C56.2457 54.3876 56.2356 54.5458 56.2049 54.7301C56.177 54.8899 56.1703 55.0236 56.1509 55.1927C56.1367 55.3261 56.1347 55.4247 56.1107 55.5486C56.0807 55.7081 56.0727 55.8421 56.0523 56.0112C56.0384 56.1444 56.0368 56.2427 56.0149 56.3689C55.9834 56.5597 55.9723 56.7226 55.9496 56.9205C55.9364 57.0532 55.9346 57.1505 55.9119 57.277C55.8551 57.6815 55.819 58.0573 55.7697 58.4654C55.7555 58.5677 55.7547 58.6373 55.7338 58.7318C55.7137 58.8614 55.7137 58.9659 55.6982 59.1061C55.6757 59.27 55.669 59.3983 55.6414 59.5509C55.6171 59.6802 55.614 59.785 55.5975 59.9246C55.5802 60.0583 55.5763 60.1569 55.5513 60.2832C55.5198 60.4731 55.5095 60.636 55.487 60.8343C55.4736 60.9672 55.4721 61.0653 55.4496 61.1897C55.4212 61.35 55.4135 61.4842 55.3936 61.653C55.3789 61.7857 55.3766 61.8835 55.3544 62.0095C55.3239 62.201 55.3136 62.3642 55.2914 62.5565C55.2805 62.6269 55.2813 62.6685 55.2635 62.7403C55.2137 63.145 55.1822 63.5193 55.1342 63.9274C55.1138 64.0614 55.1102 64.161 55.0846 64.2862C55.0578 64.4454 55.0531 64.5792 55.0348 64.7475C55.0175 64.8812 55.0136 64.98 54.9883 65.1047C54.9612 65.2642 54.955 65.3979 54.9352 65.5675C54.9161 65.7307 54.9106 65.8582 54.8848 66.0123C54.8562 66.1731 54.8474 66.3068 54.8275 66.4741C54.8169 66.5765 54.8172 66.646 54.7978 66.7443C54.7646 66.9655 54.7514 67.1578 54.7266 67.3829C54.7145 67.4844 54.714 67.5533 54.6941 67.6514C54.6481 67.9957 54.6221 68.3106 54.5792 68.6606C54.5555 68.8251 54.5485 68.9539 54.5198 69.1069C54.4987 69.2355 54.4984 69.34 54.4827 69.4802C54.4589 69.6441 54.4514 69.7724 54.4223 69.9265C54.3952 70.0865 54.3895 70.2205 54.3712 70.3896C54.3552 70.5228 54.3515 70.6209 54.3275 70.7455C54.3004 70.9058 54.294 71.0398 54.2744 71.2083C54.2586 71.3413 54.2563 71.4396 54.2333 71.5659C54.2029 71.7569 54.1926 71.9197 54.1704 72.1157C54.1574 72.2174 54.1569 72.2865 54.1381 72.3849C54.1094 72.5767 54.0988 72.7393 54.0759 72.9311C54.0648 73.0018 54.0658 73.0434 54.0472 73.1133C54.0209 73.3046 54.0142 73.4675 53.9928 73.6626C53.9768 73.7646 53.9755 73.8343 53.9543 73.9267C53.937 74.025 53.9393 74.1009 53.9262 74.2135C53.9006 74.4076 53.8905 74.5655 53.8596 74.748C53.8366 74.8774 53.8343 74.9822 53.8175 75.1228C53.7976 75.2865 53.7925 75.4145 53.7656 75.5684C53.7357 75.7284 53.7271 75.8624 53.7065 76.0314C53.6933 76.1646 53.6923 76.2627 53.6706 76.3884C53.6381 76.5792 53.6265 76.7426 53.6033 76.9385C53.5929 77.0407 53.594 77.1099 53.5756 77.2041C53.5367 77.3339 53.5173 77.4385 53.4951 77.5415C53.4925 77.5399 53.4936 77.5459 53.4494 77.5448C51.7443 77.5477 50.083 77.5521 48.422 77.5562C48.422 77.5562 48.4194 77.5438 48.4093 77.503C48.3956 77.2201 48.3894 76.9777 48.3892 76.7354C48.3889 69.9632 48.3897 63.191 48.3866 56.4188C48.3866 56.18 48.3471 55.9412 48.3259 55.7025C48.3267 55.6335 48.3275 55.5646 48.3267 55.4288C48.2932 55.2332 48.2609 55.1044 48.2286 54.9756C48.225 54.9056 48.2214 54.8354 48.2077 54.7009C48.0957 54.3661 47.9937 54.0956 47.8918 53.8254C47.8812 53.7693 47.8704 53.7136 47.8453 53.6026C47.693 53.3091 47.5557 53.0709 47.4181 52.8323C47.3285 52.6798 47.2387 52.5275 47.1244 52.3267C47.0472 52.2265 46.9945 52.1746 46.9416 52.123C46.8915 52.0494 46.8415 51.9759 46.7609 51.86C46.5821 51.6772 46.4336 51.5368 46.285 51.3964C46.2424 51.3471 46.1995 51.2975 46.1229 51.2113C45.9933 51.1068 45.898 51.0391 45.8025 50.9718C45.6964 50.885 45.5906 50.7986 45.4424 50.6765C45.2917 50.5825 45.1828 50.5242 45.0741 50.4661C44.7339 50.2916 44.3934 50.1171 43.9988 49.9158C43.6877 49.8146 43.4312 49.7405 43.1746 49.6662C43.1338 49.6507 43.0928 49.6352 42.997 49.6014C42.8635 49.5745 42.7848 49.5658 42.7061 49.557C42.6364 49.543 42.5667 49.5291 42.4317 49.4997C42.1679 49.4721 41.9691 49.4602 41.7704 49.4483C41.5802 49.4424 41.3902 49.4367 41.1222 49.4305C40.8507 49.4599 40.6571 49.4899 40.4635 49.5198C40.3928 49.5224 40.3218 49.525 40.1876 49.5325C40.0508 49.565 39.9775 49.5926 39.9042 49.6205C39.8608 49.6231 39.8174 49.6259 39.7157 49.6349C39.5658 49.6822 39.4741 49.723 39.3825 49.764Z" fill="#FFD302"/>
<path d="M35.0595 16.8373C35.0742 16.7686 35.0889 16.6999 35.1207 16.5681C35.1478 16.2216 35.1581 15.9384 35.1682 15.6552C35.1788 15.6149 35.1896 15.5746 35.2175 15.4785C35.3081 15.1969 35.3814 14.971 35.4547 14.7451C35.4965 14.6804 35.5383 14.6157 35.6145 14.5084C35.7022 14.3832 35.7554 14.3005 35.8083 14.2178C36.0892 14.0288 36.3697 13.8398 36.711 13.6387C36.8746 13.5964 36.9779 13.5662 37.0811 13.5361C37.1846 13.5418 37.2881 13.5475 37.4549 13.5684C37.7502 13.6609 37.9822 13.7382 38.2143 13.8155C38.2548 13.8499 38.2953 13.8843 38.3723 13.9553C38.556 14.135 38.7032 14.2783 38.8506 14.4216C38.8506 14.4216 38.856 14.4537 38.871 14.4946C38.9652 14.6545 39.0442 14.7736 39.1234 14.8927C39.1366 14.949 39.15 15.0053 39.175 15.1185C39.2403 15.3659 39.294 15.5563 39.3477 15.7468C39.3469 15.7879 39.3462 15.829 39.3444 15.9392C39.3751 16.2854 39.4066 16.5625 39.4383 16.8396C39.4399 16.8809 39.4414 16.9222 39.4517 17.0234C39.5341 17.2345 39.6076 17.3855 39.6815 17.5365C39.7176 17.6243 39.7537 17.712 39.8128 17.8485C39.914 17.9812 39.9922 18.0652 40.0707 18.1491C40.1763 18.2562 40.2819 18.3633 40.4303 18.5052C40.5957 18.5953 40.7186 18.6505 40.8412 18.7057C41.064 18.7469 41.2867 18.7881 41.5815 18.8272C41.7859 18.7813 41.9184 18.7375 42.0776 18.699C42.162 18.6648 42.2193 18.6252 42.3076 18.5799C42.7459 18.3211 43.0673 18.0003 43.233 17.5168C43.3107 17.338 43.3618 17.1782 43.4271 16.9903C43.4428 16.9206 43.4444 16.8791 43.4676 16.8117C43.4981 16.652 43.5063 16.5182 43.5252 16.3549C43.529 16.2848 43.5226 16.2443 43.527 16.1668C43.5378 16.0017 43.5383 15.8735 43.5582 15.7193C43.6158 15.4979 43.6535 15.3026 43.7115 15.0801C43.838 14.8335 43.9441 14.6141 44.0504 14.3948C44.1891 14.2576 44.3279 14.1204 44.5081 13.9523C44.6227 13.8632 44.696 13.805 44.7696 13.7468C44.8775 13.7084 44.9854 13.67 45.1565 13.6176C45.5398 13.6041 45.8601 13.6045 46.1802 13.605C46.483 13.8206 46.7858 14.0362 47.1154 14.2985C47.1921 14.397 47.2419 14.4487 47.2917 14.5005C47.2917 14.5005 47.301 14.5372 47.3147 14.5787C47.3746 14.6789 47.4208 14.7376 47.467 14.7963C47.4832 14.8532 47.4995 14.9102 47.5289 15.0204C47.5924 15.207 47.6427 15.3403 47.6931 15.4737C47.6975 15.543 47.7019 15.6124 47.7104 15.7517C47.7385 16.0694 47.7628 16.3173 47.787 16.5651C47.7937 16.6637 47.8007 16.7623 47.8183 16.9231C47.8944 17.138 47.9597 17.2908 48.0242 17.4699C48.0606 17.5523 48.0976 17.6086 48.1345 17.6648C48.3301 18.1424 48.6724 18.4806 49.2075 18.7077C49.3267 18.7488 49.3975 18.7636 49.4999 18.7949C49.6019 18.8104 49.6721 18.8095 49.7426 18.8086C49.8727 18.8094 50.0028 18.8101 50.1953 18.8033C50.3215 18.76 50.3853 18.7244 50.449 18.6887C50.5742 18.6303 50.6994 18.5718 50.8724 18.4876C50.9681 18.4087 51.0156 18.3556 51.0634 18.3025C51.1837 18.1696 51.304 18.0367 51.4524 17.8598C51.5001 17.7664 51.52 17.7169 51.5396 17.6674C51.5747 17.6099 51.6098 17.5525 51.6718 17.4483C51.7482 17.2132 51.7975 17.0249 51.8465 16.8367C51.862 16.7695 51.8775 16.7023 51.9067 16.5708C51.9232 16.2515 51.9255 15.9965 51.9281 15.7415C51.9462 15.7183 51.9534 15.6922 51.9637 15.6262C51.9851 15.5198 51.9926 15.4504 52.0001 15.381C52.0184 15.3414 52.0365 15.3018 52.0794 15.2116C52.1354 15.0505 52.1671 14.94 52.2208 14.8066C52.2879 14.6887 52.3326 14.5938 52.4033 14.4874C52.4652 14.4145 52.5014 14.3531 52.5618 14.2736C52.6994 14.1422 52.8127 14.0289 52.9546 13.9124C53.0383 13.8606 53.0935 13.812 53.1784 13.7546C53.3005 13.7038 53.3932 13.6618 53.5161 13.6253C53.6196 13.6031 53.6929 13.5754 53.8057 13.5516C53.9776 13.55 54.11 13.5445 54.2651 13.55C54.3049 13.5586 54.3217 13.5561 54.3415 13.559C54.3444 13.5643 54.3547 13.5577 54.3583 13.5705C54.3619 13.5834 54.388 13.5917 54.388 13.5917C54.388 13.5917 54.4022 13.569 54.4363 13.5873C54.5215 13.6146 54.5723 13.6236 54.642 13.6557C54.7721 13.7238 54.8833 13.7688 55.0129 13.8334C55.0777 13.8799 55.1242 13.9068 55.1802 13.9617C55.3082 14.0967 55.4267 14.2036 55.5552 14.338C55.6531 14.4944 55.7403 14.6232 55.8296 14.7874C55.9318 15.1303 56.032 15.4379 56.1288 15.7883C56.1283 16.073 56.1337 16.3149 56.1337 16.5568C56.1345 19.7773 56.1337 22.9982 56.1355 26.2189C56.1355 26.3993 56.1536 26.5797 56.1507 26.7906C56.1389 26.8639 56.1399 26.907 56.119 26.9757C56.0015 27.3108 55.9063 27.62 55.818 27.9321C55.8252 27.9344 55.8144 27.9241 55.7896 27.9349C55.7341 28.0069 55.7037 28.0684 55.6585 28.1417C55.6435 28.1535 55.6332 28.1894 55.6045 28.2021C55.4035 28.3936 55.2316 28.5727 55.0289 28.7604C54.8095 28.8737 54.6206 28.9783 54.3955 29.081C53.9438 29.1293 53.5279 29.2219 53.1121 29.2224C45.5279 29.231 37.9438 29.2281 30.3596 29.2297C29.721 29.2299 29.0822 29.2467 28.4304 29.0689C28.2652 28.985 28.1266 28.9207 27.9748 28.8303C27.8471 28.7312 27.7322 28.6577 27.6065 28.5596C27.5394 28.4904 27.4828 28.4457 27.4211 28.3737C27.3618 28.2965 27.3076 28.2467 27.249 28.1721C27.2118 28.1107 27.179 28.0735 27.1413 28.0033C27.0087 27.6608 26.8804 27.3513 26.7578 27.0002C26.7464 26.6796 26.7299 26.4009 26.7134 26.1221C26.726 26.0483 26.7495 25.9744 26.7493 25.9006C26.7482 22.9087 26.7451 19.9165 26.7423 16.8443C26.7456 16.4235 26.7485 16.0831 26.7727 15.7169C26.9369 15.2851 27.0797 14.8791 27.2221 14.473C27.2221 14.473 27.2503 14.4496 27.2805 14.42C27.3491 14.3272 27.3876 14.2641 27.4258 14.201C27.5123 14.1274 27.5987 14.0539 27.7322 13.9496C28.0365 13.7963 28.2941 13.6737 28.5515 13.5511C28.7154 13.553 28.879 13.555 29.1018 13.5703C29.211 13.5847 29.2611 13.5858 29.3114 13.5868C29.4324 13.6411 29.5538 13.6953 29.7213 13.7813C29.8343 13.8474 29.9009 13.8816 29.9675 13.9159C30.0775 14.0302 30.1875 14.1445 30.3276 14.3058C30.5168 14.6337 30.6758 14.9146 30.8348 15.1954C30.8408 15.2385 30.8467 15.2815 30.8575 15.376C30.8831 15.472 30.9032 15.5166 30.9234 15.5612C30.9241 15.6037 30.9246 15.6461 30.9293 15.7576C30.9386 16.0385 30.9257 16.2527 30.9528 16.462C30.9967 16.8032 31.0011 17.1596 31.2424 17.4478C31.3596 17.661 31.477 17.8742 31.6278 18.131C31.7827 18.2735 31.9042 18.3723 32.0258 18.4712C32.0258 18.4712 32.0431 18.4954 32.0728 18.5226C32.1709 18.5804 32.2395 18.611 32.3082 18.6416C32.3353 18.6574 32.3624 18.6732 32.4313 18.7113C32.5436 18.7473 32.6146 18.761 32.6853 18.7747C32.9068 18.7871 33.1285 18.7996 33.4145 18.803C33.542 18.7576 33.605 18.7212 33.668 18.6847C33.7 18.6788 33.7322 18.6728 33.812 18.6519C33.916 18.59 33.9726 18.543 34.0291 18.496C34.0719 18.4736 34.1145 18.4512 34.1976 18.402C34.3104 18.288 34.3827 18.2008 34.4553 18.1137C34.4904 18.0809 34.5255 18.0481 34.5939 17.9761C34.7382 17.6917 34.8489 17.4465 34.9599 17.2013C34.9769 17.1623 34.994 17.1233 35.0316 17.0357C35.0549 16.9372 35.0572 16.8872 35.0595 16.8373Z" fill="#FFD301"/>
<path d="M62.8597 29.3983C63.1223 29.2137 63.3848 29.0289 63.7015 28.8317C63.8011 28.7963 63.8468 28.7736 63.8925 28.7506C63.9348 28.7504 63.9774 28.7499 64.0874 28.7488C64.257 28.745 64.3592 28.7413 64.4614 28.7377C64.5022 28.747 64.5432 28.7561 64.6338 28.7819C64.7345 28.8095 64.7853 28.8206 64.8364 28.8319C64.8651 28.8461 64.8937 28.8603 64.9632 28.8996C65.0734 28.9587 65.1428 28.9928 65.212 29.0271C65.3532 29.1706 65.4944 29.3144 65.6648 29.501C65.7453 29.5994 65.7967 29.6546 65.848 29.7098C65.8857 29.8017 65.9231 29.8936 65.9773 30.0405C66.0483 30.2266 66.1025 30.358 66.157 30.4891C66.1604 30.5583 66.1637 30.6272 66.1704 30.7679C66.2014 31.0859 66.229 31.3324 66.2566 31.5789C66.2933 31.7782 66.3299 31.9775 66.386 32.2356C66.4693 32.4041 66.5336 32.5136 66.5976 32.6233C66.6503 32.7219 66.7029 32.8208 66.7853 32.9633C66.9358 33.1086 67.0568 33.2098 67.1779 33.3112C67.2933 33.3827 67.4086 33.4542 67.5715 33.55C67.6921 33.5895 67.7646 33.605 67.8374 33.6202C68.1745 33.7343 68.4958 33.6839 68.865 33.51C68.9966 33.4299 69.0707 33.3713 69.1448 33.3128C69.1448 33.3128 69.1455 33.3133 69.176 33.3081C69.3105 33.1847 69.4148 33.0668 69.519 32.9488C69.5523 32.9137 69.5856 32.8786 69.6497 32.804C69.7382 32.6424 69.7955 32.5206 69.8528 32.399C69.8951 32.2996 69.9377 32.2002 69.9997 32.0518C70.0242 31.9529 70.0291 31.9029 70.034 31.8531C70.0485 31.7849 70.0629 31.717 70.0939 31.5851C70.122 31.2379 70.1331 30.9548 70.1445 30.6713C70.154 30.6313 70.1636 30.5913 70.1917 30.4984C70.2482 30.3082 70.2859 30.1708 70.3239 30.0335C70.3716 29.9468 70.4191 29.8598 70.4976 29.7294C70.5634 29.6195 70.5983 29.5531 70.6331 29.4871C70.7813 29.351 70.9297 29.215 71.1261 29.0503C71.2993 28.9453 71.424 28.8686 71.5487 28.7922C71.6622 28.7777 71.7758 28.7633 71.9542 28.7462C72.0623 28.7359 72.1057 28.7284 72.1493 28.7209C72.219 28.7333 72.289 28.7455 72.4183 28.7739C72.6176 28.8371 72.7572 28.8841 72.8971 28.9311C73.068 29.0769 73.2391 29.2225 73.4417 29.4138C73.5829 29.6105 73.6929 29.762 73.8029 29.9135C73.8168 29.968 73.8307 30.0224 73.8553 30.1262C73.8935 30.2183 73.9211 30.2609 73.9484 30.3038C73.9528 30.3464 73.9572 30.3892 73.9678 30.4876C73.9988 30.6143 74.0233 30.6855 74.0478 30.7568C74.0496 30.8856 74.0514 31.0144 74.0517 31.2165C74.0625 31.7764 74.1211 32.25 74.4575 32.645C74.6312 32.8631 74.8049 33.0812 75.0212 33.336C75.1864 33.4302 75.3085 33.488 75.4306 33.5456C75.5333 33.5815 75.6358 33.6176 75.7927 33.6607C75.8627 33.6638 75.8784 33.6597 75.8942 33.6558C75.9664 33.661 76.0387 33.6664 76.1786 33.6682C76.367 33.6173 76.4876 33.5696 76.6081 33.5218C76.6386 33.5162 76.6693 33.5105 76.747 33.4901C76.8515 33.4268 76.9086 33.3786 76.9656 33.33C77.1079 33.201 77.2501 33.0717 77.429 32.9C77.7472 32.4757 77.924 32.0588 77.9194 31.581C77.9336 31.3657 77.9478 31.1504 77.9739 30.8683C78.0121 30.6365 78.0389 30.4713 78.0655 30.3061C78.0996 30.2263 78.1334 30.1466 78.1948 30.0152C78.2862 29.8361 78.3502 29.7085 78.4142 29.581C78.4142 29.581 78.4398 29.5622 78.4702 29.533C78.6411 29.3518 78.7813 29.2 78.9217 29.0483C78.9661 29.0276 79.0105 29.0072 79.1011 28.9636C79.281 28.8794 79.415 28.8183 79.5487 28.7571C79.5907 28.7561 79.6328 28.7553 79.7428 28.7527C79.9126 28.7434 80.0146 28.7362 80.1165 28.7287C80.1576 28.7388 80.1986 28.7486 80.2897 28.7754C80.3904 28.802 80.441 28.8115 80.4916 28.8214C80.5809 28.8655 80.6702 28.9096 80.805 28.986C81.037 29.1871 81.2234 29.3565 81.41 29.5255C81.41 29.5255 81.4162 29.5588 81.4324 29.6022C81.5984 30.0183 81.7481 30.3915 81.8976 30.7645C81.8971 30.8329 81.8968 30.9016 81.8963 31.0451C81.8942 34.2232 81.8922 37.3269 81.8919 40.4303C81.8919 40.5194 81.9149 40.6084 81.927 40.6975C81.9242 40.8204 81.9208 40.9435 81.9337 41.103C81.9497 41.1397 81.9477 41.143 81.9221 41.167C81.8751 41.3268 81.8537 41.4626 81.8176 41.6231C81.7946 41.7044 81.7866 41.761 81.7546 41.8335C81.7058 41.9174 81.681 41.985 81.6387 42.071C81.6116 42.1203 81.602 42.1518 81.5664 42.198C81.506 42.2803 81.4714 42.3474 81.4121 42.4339C81.078 42.8423 80.6601 43.0877 80.186 43.2852C80.1165 43.3022 80.0727 43.3262 79.995 43.349C79.9193 43.3626 79.8778 43.3776 79.812 43.3812C79.7415 43.3885 79.6948 43.4068 79.6155 43.4202C79.5409 43.4238 79.4989 43.4326 79.4565 43.4411C79.3861 43.4347 79.3153 43.4285 79.1679 43.4215C78.7944 43.4184 78.4981 43.414 78.2018 43.414C71.6806 43.4143 65.1594 43.4145 58.6384 43.4161C58.0145 43.4163 57.3909 43.4246 56.744 43.4109C56.6429 43.3928 56.5649 43.3931 56.4575 43.3774C56.3834 43.358 56.3388 43.3546 56.2776 43.3311C56.2113 43.3051 56.1612 43.2991 56.0827 43.2736C55.5882 43.0764 55.2141 42.778 54.885 42.3825C54.7503 42.1019 54.6202 41.8534 54.4909 41.572C54.4759 41.4985 54.4599 41.4579 54.4563 41.3758C54.4669 37.9441 54.4653 34.5533 54.4628 31.1626C54.4628 30.9974 54.4519 30.8319 54.462 30.6352C54.4865 30.5345 54.4955 30.4654 54.526 30.3799C54.5534 30.3138 54.5593 30.2638 54.5815 30.1897C54.613 30.1099 54.6282 30.0544 54.6687 29.9803C54.7573 29.8345 54.8205 29.7072 54.9052 29.5619C54.9808 29.469 55.0353 29.3944 55.1184 29.3108C55.2286 29.2173 55.3099 29.1327 55.416 29.0426C55.4777 29.0057 55.5149 28.9742 55.5848 28.9416C55.7513 28.8789 55.8855 28.8172 56.0518 28.7581C56.1264 28.7524 56.1684 28.7444 56.2477 28.7442C56.386 28.7473 56.487 28.7421 56.6181 28.7462C56.6898 28.7563 56.7316 28.7573 56.7954 28.7795C56.8958 28.8183 56.9745 28.8363 57.0773 28.8732C57.3302 29.064 57.5589 29.2356 57.7923 29.4329C57.832 29.4953 57.8671 29.5322 57.9071 29.6004C57.9923 29.754 58.0726 29.8761 58.1531 29.9984C58.1653 30.0547 58.1771 30.111 58.2029 30.2258C58.2711 30.5038 58.3253 30.7235 58.3795 30.9432C58.3785 31.13 58.3774 31.3169 58.3795 31.5743C58.4131 31.7444 58.4438 31.844 58.4745 31.9439C58.5008 32.0472 58.5269 32.1507 58.5669 32.3099C58.6247 32.4271 58.6691 32.4883 58.7133 32.5495C58.72 32.5794 58.7267 32.6094 58.7499 32.684C58.8157 32.782 58.865 32.8352 58.9141 32.8884C59.0439 33.0298 59.1735 33.1713 59.3444 33.3466C59.4525 33.4114 59.5196 33.4429 59.5865 33.4741C59.6133 33.4901 59.6402 33.5058 59.7078 33.5453C59.8203 33.5825 59.8918 33.5962 59.9633 33.6096C60.0036 33.6259 60.0439 33.6421 60.1502 33.6679C60.2857 33.6703 60.3552 33.663 60.4249 33.6555C60.5606 33.631 60.6967 33.6062 60.8918 33.5665C61.0637 33.4746 61.1763 33.3979 61.2885 33.321C61.4421 33.1723 61.5955 33.0237 61.7841 32.8295C61.924 32.5342 62.0288 32.2846 62.1336 32.035C62.1561 31.9679 62.1788 31.9005 62.2188 31.7764C62.2379 31.6424 62.239 31.5658 62.2402 31.4888C62.2586 31.2431 62.2772 30.9976 62.3133 30.6866C62.4542 30.2805 62.5774 29.9398 62.7002 29.5994C62.7002 29.5994 62.6863 29.5883 62.7178 29.5859C62.7862 29.5219 62.8228 29.4602 62.8597 29.3983Z" fill="#FFD302"/>
<path d="M6.25071 33.6112C6.29072 33.6264 6.33047 33.6419 6.42495 33.6641C6.49515 33.6665 6.5109 33.6623 6.52664 33.6579C6.56949 33.6634 6.61208 33.6688 6.72256 33.6737C7.16679 33.6443 7.49383 33.5198 7.72795 33.2155C7.79584 33.1551 7.86372 33.0945 7.96697 32.9964C8.03821 32.8944 8.07409 32.8301 8.10997 32.7659C8.10997 32.7659 8.13475 32.745 8.16469 32.7127C8.41352 32.3441 8.55472 31.9855 8.53613 31.58C8.54878 31.4843 8.56169 31.3882 8.57511 31.2233C8.56995 31.0849 8.56427 31.016 8.55885 30.9468C8.56788 30.9058 8.57691 30.8648 8.60066 30.7711C8.62312 30.6412 8.63035 30.5643 8.65255 30.4598C8.67139 30.3914 8.675 30.3501 8.70056 30.2894C8.75683 30.1606 8.79142 30.0514 8.8433 29.9226C8.87014 29.8694 8.87918 29.8361 8.91299 29.7886C8.969 29.7094 8.99998 29.6446 9.04618 29.5679C9.06141 29.5566 9.07174 29.5204 9.09858 29.5088C9.16466 29.4342 9.20389 29.3715 9.26481 29.2992C9.30379 29.2652 9.32109 29.2401 9.36806 29.2099C9.48448 29.1234 9.5712 29.0424 9.68813 28.9564C9.80945 28.9066 9.90057 28.8617 10.0178 28.8201C10.089 28.7997 10.1342 28.7757 10.215 28.7554C10.3205 28.7473 10.3907 28.736 10.4927 28.7344C10.5681 28.7381 10.6117 28.7319 10.6889 28.7373C10.7932 28.7517 10.8639 28.7553 10.9527 28.7781C11.0219 28.807 11.0727 28.8165 11.145 28.84C11.1992 28.8599 11.2322 28.8663 11.2805 28.8968C11.3628 28.9533 11.4302 28.9856 11.5087 29.0313C11.5195 29.0447 11.5541 29.0514 11.5675 29.0793C11.7043 29.2135 11.828 29.3204 11.9594 29.4549C12.0355 29.5759 12.1039 29.6691 12.1723 29.7912C12.217 29.8821 12.2616 29.9443 12.3071 30.0382C12.3398 30.1487 12.3718 30.2272 12.3946 30.3299C12.4087 30.3978 12.4325 30.4414 12.4539 30.5173C12.4668 30.5901 12.4818 30.6304 12.4849 30.7107C12.479 30.9623 12.4679 31.1761 12.4944 31.3851C12.5376 31.7259 12.5326 32.0836 12.7779 32.3998C12.8248 32.5103 12.8708 32.5927 12.9173 32.7031C12.9691 32.7868 13.0205 32.8415 13.0806 32.9243C13.2704 33.1061 13.451 33.2599 13.6485 33.4396C13.8184 33.517 13.9714 33.5684 14.1534 33.6352C14.2254 33.6515 14.2685 33.6525 14.3473 33.6657C14.4807 33.6683 14.5788 33.6585 14.7099 33.6517C14.8467 33.6177 14.95 33.5808 15.0816 33.5464C15.1676 33.5064 15.2254 33.4638 15.2997 33.4192C15.316 33.4174 15.3374 33.3939 15.3661 33.3913C15.4461 33.3366 15.4972 33.2842 15.5718 33.2222C15.6381 33.1623 15.681 33.112 15.7512 33.0526C15.8178 32.9814 15.8568 32.9194 15.9073 32.8497C15.9192 32.842 15.9226 32.8144 15.9484 32.7997C16.0041 32.7178 16.0343 32.6505 16.0813 32.5663C16.104 32.5196 16.1102 32.4897 16.1435 32.4398C16.2272 32.2313 16.2837 32.0431 16.3518 31.8255C16.3616 31.7548 16.3603 31.7132 16.3795 31.6417C16.4623 31.1157 16.524 30.6198 16.6058 30.101C16.6422 30.0215 16.659 29.9647 16.7003 29.8911C16.7558 29.8067 16.7868 29.7391 16.8399 29.6495C17.0088 29.4556 17.1554 29.2837 17.3304 29.109C17.413 29.0563 17.4669 29.0065 17.5516 28.95C17.6768 28.8978 17.771 28.8524 17.8908 28.8119C17.9617 28.7943 18.0072 28.7716 18.0846 28.7523C18.1582 28.7471 18.1997 28.7383 18.2769 28.7386C18.3845 28.7417 18.4568 28.7362 18.5629 28.7409C18.6669 28.7548 18.7374 28.7582 18.828 28.7832C18.9607 28.8431 19.0727 28.8821 19.208 28.9425C19.4749 29.1996 19.7185 29.435 19.9622 29.7006C20.0376 29.8506 20.1129 29.9706 20.1865 30.1134C20.1984 30.1634 20.2118 30.1908 20.2221 30.2566C20.2817 30.7241 20.3445 31.1531 20.4031 31.6131C20.4093 31.6838 20.4196 31.7238 20.4224 31.7981C20.4957 32.0408 20.5763 32.2493 20.6576 32.4814C20.6762 32.5307 20.6937 32.5565 20.71 32.6102C20.757 32.6923 20.8055 32.7465 20.8568 32.8177C20.8597 32.8345 20.8868 32.8562 20.8899 32.8864C21.0747 33.1804 21.2879 33.4073 21.6446 33.5126C21.8101 33.5699 21.9505 33.6079 22.1124 33.6567C22.1495 33.6634 22.165 33.6592 22.2159 33.6641C22.323 33.6667 22.3947 33.6603 22.4998 33.6616C22.6554 33.6221 22.7778 33.5748 22.9301 33.526C23.0746 33.4517 23.1892 33.3789 23.3338 33.3025C23.4381 33.2129 23.5127 33.1265 23.6146 33.0255C23.7607 32.7986 23.8789 32.5862 24.0245 32.3518C24.31 31.801 24.3103 31.2375 24.3002 30.6425C24.3178 30.572 24.3203 30.5302 24.3456 30.467C24.406 30.308 24.4437 30.1699 24.4984 30.0088C24.5299 29.9321 24.5449 29.8785 24.5847 29.8077C24.6445 29.7215 24.6794 29.6523 24.7406 29.5674C24.9354 29.3741 25.1043 29.196 25.3022 29.0161C25.3918 28.968 25.4522 28.9218 25.5371 28.8743C25.5903 28.8578 25.6187 28.8429 25.6739 28.832C25.7459 28.8103 25.7911 28.7848 25.8717 28.7613C25.9765 28.7512 26.0459 28.7388 26.1473 28.7355C26.223 28.7378 26.2666 28.7316 26.344 28.736C26.4488 28.7486 26.5198 28.7504 26.6107 28.769C26.6798 28.7956 26.7294 28.8054 26.8055 28.8328C26.9643 28.9146 27.097 28.9786 27.2394 29.0685C27.3107 29.1338 27.3721 29.173 27.4436 29.237C27.5071 29.3088 27.5606 29.3555 27.6194 29.4309C27.679 29.5148 27.7332 29.57 27.7936 29.6552C27.878 29.8317 27.956 29.9781 28.0314 30.1583C28.0845 30.3813 28.1403 30.571 28.1914 30.8031C28.1878 31.5114 28.1899 32.1768 28.1904 32.8423C28.1935 35.6706 28.1958 38.4986 28.1793 41.3519C28.124 41.5421 28.0879 41.7071 28.0303 41.8968C27.9057 42.1062 27.8022 42.2907 27.6705 42.4866C27.5655 42.5886 27.4888 42.6789 27.384 42.7822C27.1008 42.9523 26.8461 43.1095 26.5645 43.2618C26.4932 43.283 26.4486 43.3088 26.3711 43.3341C26.2978 43.349 26.2573 43.3643 26.1853 43.3697C26.0503 43.3834 25.9468 43.4074 25.7996 43.4247C18.2816 43.4169 10.8071 43.4159 3.33264 43.4154C3.23945 43.4154 3.14627 43.4265 3.03011 43.4133C2.92919 43.3914 2.85124 43.3888 2.7436 43.3717C2.67003 43.3545 2.62615 43.3516 2.56007 43.3263C2.33602 43.2262 2.13391 43.1485 1.91812 43.0579C1.9047 43.0447 1.86676 43.0388 1.85514 43.0135C1.77925 42.9528 1.71524 42.9174 1.63367 42.8581C1.50048 42.7251 1.38458 42.6165 1.26404 42.4802C1.20751 42.3994 1.15563 42.3465 1.10142 42.2757C1.09884 42.2582 1.07251 42.2334 1.07071 42.2014C0.977007 41.9794 0.885116 41.7897 0.794515 41.5677C0.78135 41.4959 0.766895 41.4562 0.762507 41.3746C0.766121 41.0156 0.753472 40.6981 0.753214 40.3806C0.751407 37.8238 0.751924 35.2668 0.75244 32.7101C0.752698 32.0302 0.75528 31.3506 0.769219 30.6415C0.783674 30.57 0.785479 30.5279 0.807678 30.4693C0.832715 30.4035 0.83762 30.3547 0.860335 30.2788C0.883308 30.2096 0.888213 30.1676 0.91738 30.1061C1.02192 29.9185 1.10194 29.7502 1.20725 29.5646C1.40317 29.3697 1.57353 29.1918 1.77564 29.0109C1.97413 28.9255 2.14088 28.8429 2.33938 28.7618C2.4114 28.7535 2.45218 28.7435 2.53039 28.7417C2.67029 28.7435 2.77251 28.7373 2.90518 28.7406C2.97798 28.7502 3.02056 28.7502 3.08639 28.7706C3.24978 28.8408 3.38968 28.8906 3.54791 28.9634C3.70975 29.0943 3.85353 29.2017 4.00246 29.3369C4.06287 29.4149 4.11785 29.4649 4.17773 29.5341C4.18289 29.5532 4.21309 29.5793 4.21309 29.6069C4.26033 29.6898 4.30756 29.7453 4.35867 29.8299C4.40694 29.9482 4.45108 30.0367 4.49032 30.1516C4.51148 30.2218 4.53781 30.2656 4.56414 30.3098C4.56749 30.3506 4.57111 30.3914 4.5804 30.4918C4.61602 30.6505 4.64571 30.7499 4.67539 30.8493C4.6772 31.0674 4.67875 31.2852 4.68391 31.5725C4.71746 31.7408 4.74766 31.8397 4.77786 31.9386C4.80419 32.0441 4.83052 32.15 4.87234 32.311C4.99443 32.5354 5.10103 32.7044 5.20764 32.8732C5.33722 33.0183 5.46705 33.1631 5.63664 33.3428C5.74273 33.4073 5.80855 33.437 5.87437 33.4667C5.90173 33.4837 5.92909 33.5007 5.99827 33.5415C6.11029 33.5808 6.1805 33.596 6.25071 33.6112Z" fill="#FFD302"/>
<path d="M41.5862 18.3954C40.6518 18.4179 40.0806 17.607 39.9188 16.8765C39.8731 16.6702 39.845 16.4566 39.8403 16.2458C39.8302 15.7718 39.7556 15.3127 39.5979 14.8629C39.5491 14.7237 39.5357 14.5669 39.5355 14.4181C39.5324 10.3858 39.5303 6.35345 39.5349 2.32113C39.536 1.33294 40.1253 0.627227 41.0847 0.428108C42.0284 0.232294 43.0062 0.808174 43.2677 1.71621C43.3095 1.86159 43.3402 2.00993 43.389 2.20949C46.5445 2.20949 49.7019 2.20949 52.8592 2.20949C52.8721 2.2408 52.8853 2.27208 52.8982 2.30337C51.7274 3.4002 50.5565 4.497 49.3526 5.62489C50.5454 6.74126 51.7111 7.83251 52.9258 8.9693C52.4274 9.07226 51.9837 9.01166 51.5457 9.02211C51.0932 9.03293 50.6402 9.02451 50.1872 9.02451C49.7344 9.02451 49.2817 9.02451 48.8287 9.02451C48.3759 9.02451 47.9229 9.02451 47.4702 9.02451C47.0174 9.02451 46.5644 9.02451 46.1117 9.02451C45.6589 9.02451 45.2059 9.02454 44.7532 9.02454C44.3048 9.02454 43.8562 9.02454 43.342 9.02454C43.342 10.9691 43.342 12.8591 43.319 14.809C43.2857 14.9189 43.2757 14.9689 43.2426 15.0458C43.168 15.3527 43.1076 15.6315 43.0663 15.913C43.0031 16.3431 42.9528 16.7751 42.8758 17.2302C42.6043 17.815 42.2135 18.2291 41.5862 18.3954Z" fill="#4497CC"/>
<path d="M69.9312 30.0307C69.8817 30.3578 69.8016 30.6841 69.79 31.0124C69.7704 31.5547 69.6432 32.0568 69.3135 32.5552C69.257 32.6151 69.2454 32.6414 69.249 32.674C69.249 32.674 69.2376 32.6758 69.2113 32.6918C69.0714 32.8141 68.9578 32.9205 68.8445 33.0268C68.771 33.0562 68.6977 33.0859 68.5727 33.129C68.4733 33.1641 68.4251 33.1856 68.3771 33.2072C68.2847 33.2047 68.1923 33.2023 68.0423 33.1868C67.9052 33.1613 67.8257 33.1486 67.7462 33.1363C67.7462 33.1363 67.7181 33.112 67.6856 33.0913C67.621 33.0622 67.5893 33.0534 67.5575 33.0446C67.5575 33.0446 67.5542 33.0351 67.5436 33.0188C67.5157 32.9806 67.4935 32.9739 67.4664 32.9822C66.8585 32.4773 66.6182 31.8255 66.58 31.0612C66.5578 30.6151 66.4267 30.1743 66.3283 29.6758C66.2938 29.5958 66.2752 29.571 66.2566 29.546C66.2607 29.3797 66.2687 29.2133 66.2687 29.047C66.2695 25.2149 66.2695 21.3827 66.2695 17.5506C66.2695 17.4446 66.2703 17.3386 66.2698 17.2326C66.2649 16.3009 66.6727 15.6343 67.6455 15.2817C67.7485 15.2487 67.7955 15.2282 67.8422 15.2078C68.0554 15.2113 68.2687 15.2149 68.5356 15.2309C68.589 15.2433 68.6287 15.2565 68.6287 15.2565L68.6695 15.2467C68.7103 15.2633 68.7508 15.2798 68.8352 15.3133C68.8794 15.3304 68.9145 15.3489 68.9145 15.3489L68.954 15.3436C68.97 15.3545 68.986 15.3653 69.0381 15.396C69.0743 15.4158 69.105 15.4346 69.105 15.4346L69.1409 15.4308C69.1902 15.4689 69.2397 15.507 69.3239 15.5727C69.3745 15.6242 69.3964 15.6333 69.425 15.6277C69.4818 15.6883 69.5384 15.749 69.6228 15.8448C69.6633 15.9044 69.6837 15.9165 69.7121 15.9161C69.8349 16.2328 69.9581 16.5496 70.0895 16.923C70.0977 16.9797 70.1305 17.0123 70.1305 17.0123L70.177 17.0065C70.3788 17.0151 70.5809 17.031 70.783 17.0312C73.7019 17.0336 76.6207 17.0338 79.5871 17.0546C79.6346 17.0746 79.6506 17.1148 79.6506 17.1148C79.6506 17.1148 79.6431 17.117 79.6253 17.1269C79.5858 17.1557 79.5762 17.1791 79.5788 17.2071C79.5788 17.2071 79.5558 17.2108 79.5355 17.2243C79.4908 17.2511 79.48 17.2713 79.4828 17.2985C79.4828 17.2985 79.4611 17.2992 79.4399 17.3116C79.3919 17.3378 79.3803 17.3592 79.3837 17.3883C79.3837 17.3883 79.3638 17.3886 79.3437 17.4011C79.2975 17.4281 79.2859 17.45 79.2892 17.4792C79.2892 17.4792 79.2696 17.4791 79.2495 17.4915C79.203 17.5185 79.1911 17.5406 79.1937 17.57C79.1937 17.57 79.1754 17.57 79.1555 17.5821C79.109 17.609 79.0964 17.6311 79.0974 17.6605C79.0974 17.6605 79.0819 17.6597 79.0603 17.6702C79.0099 17.6957 78.9965 17.7188 78.9986 17.7502C78.9986 17.7502 78.9864 17.7505 78.965 17.7603C78.9157 17.786 78.9025 17.8096 78.9041 17.8409C78.9041 17.8409 78.8927 17.8411 78.8708 17.8505C78.8207 17.876 78.8073 17.8999 78.8091 17.9317C78.8091 17.9317 78.7985 17.9321 78.7766 17.9413C78.726 17.9657 78.7115 17.9893 78.7113 18.0211C78.7113 18.0211 78.7038 18.0214 78.6806 18.0288C78.6276 18.0528 78.6132 18.0777 78.6137 18.111C78.6137 18.111 78.6088 18.112 78.5858 18.1193C78.5334 18.1436 78.5192 18.1688 78.5197 18.2019C78.5197 18.2019 78.5151 18.2031 78.4921 18.2102C78.4397 18.2345 78.4253 18.2597 78.4258 18.2929C78.4258 18.2929 78.4214 18.2941 78.3982 18.301C78.345 18.3241 78.3285 18.3486 78.3256 18.3816C77.9627 18.7121 77.5995 19.0428 77.2018 19.4003C77.1447 19.439 77.1365 19.4571 77.1427 19.4811C77.0797 19.532 77.017 19.5831 76.9204 19.6626C76.8608 19.7041 76.8484 19.725 76.8505 19.7534C76.8505 19.7534 76.8321 19.7527 76.8112 19.7645C76.7637 19.7914 76.7513 19.8136 76.7539 19.8435C76.7539 19.8435 76.7371 19.8438 76.7168 19.8557C76.67 19.883 76.6582 19.9055 76.661 19.9354C76.661 19.9354 76.6437 19.9359 76.6238 19.9478C76.5779 19.9749 76.5647 19.9969 76.565 20.0263C76.565 20.0263 76.551 20.0255 76.5286 20.0353C76.477 20.0598 76.463 20.0833 76.4646 20.1153C76.4646 20.1153 76.4548 20.1159 76.4328 20.1249C76.3827 20.1502 76.3693 20.1742 76.3706 20.2062C76.3706 20.2062 76.3608 20.2067 76.3389 20.2157C76.289 20.2413 76.2756 20.2653 76.2769 20.2971C76.2769 20.2971 76.2679 20.2978 76.2426 20.3087C76.0818 20.4339 76.1158 20.5175 76.2668 20.5805C76.6323 20.932 76.9981 21.2834 77.3954 21.6638C77.4408 21.7144 77.4601 21.7224 77.4857 21.7165C78.1602 22.3569 78.8344 22.9973 79.5414 23.6726C79.585 23.7389 79.6075 23.7565 79.6415 23.7603C79.6415 23.7603 79.6444 23.7585 79.6366 23.7784C79.6292 23.7985 79.6292 23.8383 79.6292 23.8383C79.6292 23.8383 79.6364 23.8424 79.5935 23.8373C78.4276 23.8336 77.3048 23.8357 76.1817 23.8362C74.3098 23.837 72.4379 23.8336 70.5662 23.8424C70.4157 23.8432 70.2216 23.7433 70.1083 23.9413C70.0998 24.1664 70.084 24.3915 70.0838 24.6165C70.0815 26.1382 70.0866 27.6601 70.0776 29.1818C70.0763 29.4025 70.0118 29.6232 69.9578 29.8947C69.9194 29.9727 69.9165 30.0008 69.9312 30.0307Z" fill="#3DAA3F"/>
<path d="M11.8703 23.8561C11.6834 23.8504 11.4966 23.8398 11.3097 23.8396C8.70419 23.8383 6.0987 23.8386 3.49321 23.8386C3.35331 23.8386 3.21315 23.8386 2.97542 23.8386C3.26606 23.4679 3.58717 23.2183 3.87265 22.9405C4.15865 22.662 4.46401 22.4023 4.75698 22.1303C5.06131 21.8474 5.3615 21.5606 5.6617 21.2738C5.94873 20.9999 6.23344 20.7243 6.54629 20.423C5.35273 19.3046 4.18137 18.2071 2.92896 17.0335C6.19343 17.0335 9.33685 17.0335 12.5094 17.0335C12.7412 15.8555 13.3873 15.1473 14.6759 15.2099C15.4528 15.2476 16.07 15.7962 16.3377 16.6813C16.3604 16.9601 16.3661 17.1716 16.3663 17.3831C16.3668 20.844 16.3663 24.3047 16.3676 27.7657C16.3676 27.9464 16.3808 28.1273 16.3797 28.3501C16.342 28.9724 16.4419 29.5661 16.1794 30.1242C16.1428 30.2021 16.1549 30.3015 16.1306 30.4045C16.1035 30.4425 16.1023 30.4672 16.1048 30.5225C16.0971 30.5932 16.0979 30.6342 16.0896 30.7081C16.0826 30.8093 16.085 30.8771 16.0803 30.9835C16.0158 31.3616 15.958 31.7016 15.8847 32.0498C15.8493 32.0751 15.8439 32.0958 15.8356 32.1487C15.5865 32.6226 15.2737 32.986 14.7461 33.1554C14.6973 33.1716 14.6723 33.1887 14.6144 33.2018C14.4735 33.2003 14.3648 33.2023 14.2391 33.1863C14.1901 33.1616 14.1578 33.1548 14.0951 33.1357C13.345 32.7976 12.9648 32.2013 12.9211 31.4809C12.8726 30.6779 12.669 29.9097 12.5479 29.1242C12.5572 29.0566 12.5662 28.989 12.5778 28.8485C12.5843 27.4487 12.5889 26.1217 12.5902 24.7947C12.5905 24.7214 12.5629 24.648 12.5479 24.5747C12.5567 24.4994 12.5655 24.424 12.5631 24.2882C12.5482 24.131 12.5438 24.0347 12.534 23.9134C12.4976 23.8768 12.4666 23.8651 12.3956 23.8476C12.1938 23.8466 12.0319 23.8515 11.8703 23.8561Z" fill="#E4619F"/>
<path d="M48.1792 40.8093C47.935 40.1552 47.4647 39.7066 46.7781 39.3811C46.6366 39.3297 46.5458 39.3052 46.4552 39.2807C46.4146 39.267 46.3741 39.2533 46.2719 39.22C45.9203 39.2151 45.6305 39.2296 45.3403 39.244C44.7097 39.3328 44.2283 39.6612 43.798 40.1717C43.7229 40.2791 43.6847 40.3449 43.6468 40.4108C43.5283 40.6338 43.4098 40.8565 43.2694 41.1281C43.2428 41.227 43.2387 41.277 43.2343 41.3271C43.2209 41.3669 43.2075 41.4066 43.1747 41.5013C43.1502 41.6616 43.145 41.7672 43.1396 41.8725C43.129 42.0574 43.1184 42.2422 43.1187 42.466C43.1187 42.6921 43.1081 42.8795 43.0794 43.1304C42.9842 43.4203 42.9068 43.6466 42.8291 43.873C42.6755 44.038 42.5219 44.2029 42.32 44.3986C42.0756 44.5196 41.8794 44.61 41.6835 44.7006C41.5508 44.6993 41.4182 44.6977 41.221 44.6809C41.0498 44.6453 40.9432 44.6249 40.8366 44.6048C40.7765 44.5676 40.7163 44.5307 40.6146 44.4623C40.4758 44.3598 40.3787 44.2886 40.2814 44.2174C40.1926 44.0867 40.1035 43.9561 39.9944 43.7716C39.912 43.588 39.8503 43.4582 39.7884 43.3281C39.7817 43.2589 39.7747 43.1895 39.7672 43.0473C39.744 42.5764 39.7213 42.1784 39.6985 41.7804C39.6903 41.6818 39.682 41.5829 39.6655 41.4203C39.555 41.1229 39.4528 40.8898 39.3506 40.6568C39.1245 40.3651 38.8984 40.0734 38.6325 39.7451C38.5274 39.673 38.4624 39.6374 38.3973 39.6021C38.3973 39.6021 38.3759 39.5786 38.3429 39.5494C38.0879 39.4366 37.8659 39.353 37.6439 39.2693C37.6034 39.2572 37.5631 39.2451 37.4619 39.2141C37.1413 39.2102 36.8814 39.2254 36.6215 39.2407C36.5791 39.2425 36.5368 39.2445 36.4361 39.2528C36.3122 39.2969 36.2467 39.3346 36.1811 39.3726C35.9942 39.458 35.8073 39.5437 35.5732 39.6586C35.4736 39.7425 35.4209 39.7969 35.3685 39.8511C35.3185 39.8932 35.2684 39.935 35.1799 40.0091C35.0766 40.1351 35.0121 40.229 34.9473 40.3233C34.9473 40.3233 34.9207 40.3439 34.8884 40.3757C34.7591 40.6214 34.6615 40.8356 34.5642 41.0499C34.5041 41.2711 34.4439 41.4923 34.3657 41.7775C34.3448 42.2765 34.3422 42.7117 34.3394 43.1466C34.3077 43.2551 34.2759 43.3635 34.2183 43.5253C34.1334 43.707 34.0743 43.8353 34.0149 43.9636C34.0149 43.9636 33.9876 43.9884 33.9545 44.0183C33.7767 44.1952 33.6314 44.342 33.4863 44.4889C33.3629 44.5379 33.2395 44.5872 33.0645 44.6456C32.9667 44.6724 32.9202 44.69 32.8738 44.7075C32.7411 44.7019 32.6087 44.6962 32.4174 44.6766C32.308 44.6598 32.2569 44.6569 32.2058 44.6541C31.9747 44.4943 31.7435 44.3345 31.4804 44.1314C31.396 44.0343 31.3436 43.9804 31.2912 43.9267C31.2912 43.9267 31.2868 43.8942 31.2739 43.8539C31.2161 43.7512 31.1712 43.689 31.1263 43.6268C31.1074 43.5462 31.0883 43.4654 31.0638 43.3278C31.0313 43.1993 31.0042 43.1273 30.9771 43.0553C30.9743 42.6276 30.9714 42.1998 30.9678 41.6978C30.9392 41.4941 30.9113 41.3645 30.8837 41.2352C30.8777 41.1655 30.872 41.0956 30.8604 40.9678C30.8204 40.8452 30.7858 40.7807 30.7512 40.7159C30.7378 40.6338 30.7244 40.5517 30.6968 40.4115C30.5669 40.1612 30.4513 39.9691 30.3357 39.7768C30.3357 39.7768 30.3375 39.7745 30.3326 39.7458C30.2409 39.6405 30.1542 39.5639 30.0675 39.4872C30.0675 39.4872 30.0587 39.4988 30.0564 39.4683C29.9911 39.4048 29.9283 39.3718 29.8654 39.3388C29.8388 39.3228 29.8122 39.3065 29.7378 39.2626C29.6594 39.1015 29.6158 38.9694 29.6021 38.8344C29.5874 38.6927 29.6016 38.5479 29.6031 38.4046C29.6276 38.2492 29.6519 38.0938 29.6927 37.8744C29.712 37.7051 29.7149 37.5995 29.7177 37.4942C29.7335 37.3974 29.7492 37.3006 29.781 37.1398C29.8078 36.9124 29.8186 36.7485 29.8406 36.5518C29.8512 36.4493 29.8509 36.3804 29.8718 36.2831C29.9067 36.0619 29.9201 35.8688 29.9441 35.6429C29.9536 35.541 29.9531 35.4723 29.973 35.3747C30.0078 35.153 30.022 34.9599 30.0458 34.7374C30.0538 34.6675 30.052 34.6267 30.069 34.5559C30.1175 34.1806 30.1475 33.8353 30.1919 33.4556C30.212 33.3226 30.2174 33.224 30.2445 33.1014C30.267 32.9721 30.268 32.8668 30.2838 32.7261C30.3055 32.5627 30.3122 32.4349 30.3401 32.2811C30.3695 32.1208 30.3775 31.9866 30.3971 31.8172C30.4103 31.684 30.4118 31.5862 30.435 31.4613C30.4678 31.2708 30.4784 31.1069 30.4998 30.9081C30.5125 30.7757 30.5145 30.6784 30.5373 30.5532C30.5687 30.3614 30.5793 30.1977 30.5997 30.0044C30.6088 29.9342 30.608 29.8932 30.625 29.8294C30.6795 29.738 30.7159 29.6694 30.7931 29.6077C37.734 29.6146 44.6338 29.6146 51.5337 29.6175C51.7666 29.6175 51.9991 29.6456 52.2283 29.6978C52.2748 30.0473 52.3249 30.3596 52.3703 30.706C52.3762 30.808 52.3868 30.8758 52.3879 30.9788C52.4093 31.1727 52.4403 31.3312 52.4663 31.5243C52.4728 31.6265 52.4839 31.6944 52.4857 31.7976C52.5069 31.9912 52.5373 32.1494 52.5636 32.3443C52.5722 32.4778 52.5851 32.5746 52.5882 32.7049C52.607 32.8678 52.6351 32.9971 52.6586 33.1646C52.6739 33.3288 52.694 33.4548 52.7017 33.6112C52.7118 33.7428 52.7345 33.844 52.7521 33.9824C52.7663 34.1161 52.7854 34.2126 52.791 34.3456C52.8295 34.723 52.8814 35.0639 52.9289 35.439C52.9346 35.5407 52.9451 35.6083 52.9472 35.7113C52.9684 35.9059 52.9978 36.065 53.0234 36.2601C53.0316 36.3928 53.044 36.4891 53.0476 36.6207C53.0706 36.814 53.1021 36.9717 53.1279 37.1643C53.1328 37.2668 53.1436 37.3352 53.1455 37.4392C53.1679 37.6326 53.1991 37.7903 53.2249 37.9849C53.2337 38.1191 53.2477 38.2162 53.2508 38.3468C53.2681 38.5089 53.2959 38.638 53.3186 38.799C53.3256 38.8723 53.3378 38.9134 53.339 38.9849C53.3267 39.0582 53.3251 39.101 53.2957 39.1493C53.2061 39.1927 53.1447 39.2309 53.083 39.2691C53.083 39.2691 53.0765 39.2683 53.0732 39.2678C52.9353 39.3524 52.8011 39.4376 52.6258 39.5582C52.5482 39.6545 52.5118 39.7156 52.4754 39.7768C52.3509 40.029 52.2268 40.2809 52.0825 40.5827C52.059 40.6818 52.0557 40.7316 52.052 40.7812C52.0368 40.8207 52.0218 40.8602 51.9878 40.9554C51.9586 41.1162 51.9485 41.221 51.9385 41.3258C51.9243 41.452 51.9101 41.578 51.8832 41.7734C51.8324 42.3986 51.7944 42.9546 51.7565 43.5103C51.5286 44.0158 51.2051 44.4319 50.5952 44.6404C50.4956 44.6691 50.4488 44.6871 50.4024 44.7055C49.8102 44.7359 49.3263 44.5294 48.9208 44.0385C48.841 43.9332 48.7912 43.873 48.7416 43.8129C48.6897 43.6701 48.6381 43.5271 48.579 43.3289C48.5475 43.2014 48.5235 43.1293 48.4992 43.0573C48.501 43.016 48.5031 42.9745 48.5054 42.8622C48.5075 42.5091 48.5281 42.2254 48.5067 41.9448C48.4763 41.5481 48.4487 41.1441 48.1792 40.8093Z" fill="#FFD302"/>
<path d="M215.452 72.2368C215.71 73.1538 215.95 74.0253 216.191 74.8968C216.234 74.8995 216.277 74.9022 216.32 74.9052C216.892 72.8983 217.363 70.8642 217.935 68.8297C218.297 68.8297 218.635 68.8297 219.065 68.8297C219.63 70.841 220.204 72.8852 220.786 74.9587C221.068 74.5197 222.307 70.0034 222.302 69.4065C222.048 69.3651 221.779 69.3214 221.451 69.2683C221.439 69.1225 221.425 68.9588 221.413 68.8149C221.493 68.7722 221.528 68.7373 221.562 68.7373C222.392 68.7343 223.223 68.7349 224.107 68.7349C224.118 68.9181 224.128 69.0794 224.136 69.2193C224.054 69.2623 224.018 69.2986 223.984 69.2966C223.412 69.2626 223.215 69.6212 223.086 70.0767C222.717 71.3694 222.339 72.6593 221.963 73.95C221.753 74.6699 221.541 75.3889 221.319 76.1431C220.971 76.1431 220.635 76.1431 220.219 76.1431C219.67 74.1022 219.112 72.0301 218.555 69.958C218.514 69.9533 218.473 69.9486 218.433 69.9442C217.813 71.9817 217.344 74.0616 216.738 76.1424C216.376 76.1424 216.023 76.1424 215.614 76.1424C215.413 75.4726 215.208 74.795 215.006 74.1167C214.604 72.7716 214.187 71.4305 213.812 70.0784C213.674 69.5813 213.476 69.2334 212.835 69.3083C212.821 69.1144 212.81 68.9484 212.796 68.7527C213.769 68.7527 214.694 68.7527 215.646 68.7527C215.646 68.9302 215.646 69.0808 215.646 69.266C215.501 69.2872 215.367 69.3077 215.232 69.3265C214.777 69.3903 214.699 69.4727 214.809 69.9039C215.003 70.6699 215.225 71.4292 215.452 72.2368Z" fill="white"/>
<path d="M103.551 69.1986C103.258 69.2917 102.984 69.3404 102.633 69.403C102.544 70.2187 102.606 71.0388 102.591 71.9016C103.878 71.9016 105.125 71.9016 106.441 71.9016C106.453 71.6199 106.471 71.3339 106.476 71.0479C106.482 70.6728 106.481 70.2977 106.476 69.9226C106.468 69.3566 106.453 69.3445 105.846 69.3139C105.765 69.3095 105.684 69.3048 105.541 69.2971C105.519 69.1411 105.495 68.9791 105.465 68.7687C106.517 68.7687 107.517 68.7687 108.543 68.7687C108.543 68.9371 108.543 69.0887 108.543 69.2631C108.254 69.3025 107.979 69.3401 107.639 69.3865C107.619 69.6026 107.584 69.811 107.584 70.0194C107.579 71.5987 107.581 73.1781 107.582 74.7575C107.583 75.4748 107.586 75.4741 108.307 75.5171C108.367 75.5205 108.425 75.5366 108.536 75.5558C108.544 75.7137 108.552 75.8771 108.561 76.0744C107.528 76.0744 106.543 76.0744 105.52 76.0744C105.52 75.8959 105.52 75.7309 105.52 75.5695C106.551 75.4109 106.472 75.5349 106.476 74.4624C106.479 73.8571 106.477 73.2517 106.477 72.6155C105.159 72.6155 103.929 72.6155 102.63 72.6155C102.616 72.7976 102.593 72.9842 102.591 73.1711C102.586 73.7435 102.584 74.3162 102.591 74.8886C102.598 75.4593 102.629 75.4848 103.205 75.5151C103.303 75.5201 103.402 75.5312 103.537 75.5427C103.537 75.7235 103.537 75.8865 103.537 76.0777C102.541 76.0777 101.572 76.0777 100.55 76.0777C100.538 75.9251 100.524 75.7594 100.508 75.5675C100.619 75.545 100.692 75.5215 100.766 75.5161C101.446 75.4667 101.482 75.4344 101.483 74.7797C101.485 73.2003 101.485 71.6209 101.484 70.0416C101.483 69.3488 101.481 69.3492 100.736 69.3102C100.696 69.3082 100.656 69.3004 100.559 69.288C100.542 69.1357 100.523 68.9707 100.499 68.7637C101.528 68.7637 102.511 68.7637 103.534 68.7637C103.546 68.8937 103.558 69.0238 103.551 69.1986Z" fill="white"/>
<path d="M185.646 69.0135C186.85 70.9532 188.03 72.8546 189.21 74.7563C189.246 74.7506 189.282 74.7445 189.318 74.7388C189.325 74.594 189.339 74.4494 189.339 74.3046C189.341 72.904 189.341 71.5031 189.34 70.1025C189.34 69.349 189.338 69.3493 188.583 69.3106C188.524 69.3076 188.465 69.2932 188.398 69.2831C188.372 69.232 188.326 69.1819 188.323 69.1295C188.317 69.0152 188.331 68.8996 188.339 68.7564C189.267 68.7564 190.172 68.7564 191.127 68.7564C191.135 68.9248 191.143 69.0875 191.15 69.2337C191.067 69.269 191.031 69.2975 190.994 69.2986C190.199 69.3157 190.173 69.3204 190.174 70.165C190.178 71.9407 190.176 73.7164 190.176 75.4917C190.176 75.6876 190.176 75.8836 190.176 76.0765C190.09 76.1074 190.035 76.1417 189.979 76.1451C189.036 76.1989 189.034 76.1992 188.548 75.4208C187.569 73.8535 186.593 72.2849 185.615 70.7173C185.46 70.4699 185.3 70.2255 185.043 69.9903C185.026 70.1496 184.996 70.3092 184.996 70.4689C184.992 71.8893 184.993 73.3097 184.994 74.7301C184.995 75.4789 185.009 75.4904 185.765 75.5166C185.826 75.5186 185.886 75.527 186.006 75.5381C186.024 75.6924 186.044 75.8564 186.068 76.0658C185.082 76.0658 184.141 76.0658 183.16 76.0658C183.151 75.9075 183.142 75.7586 183.131 75.5808C183.245 75.5556 183.338 75.5223 183.432 75.5169C184.152 75.4749 184.166 75.4651 184.168 74.7539C184.17 73.2149 184.169 71.6762 184.168 70.1375C184.168 69.3601 184.166 69.3607 183.386 69.309C183.328 69.3053 183.271 69.2797 183.161 69.2505C183.174 69.0905 183.188 68.9288 183.204 68.7285C183.915 68.7285 184.582 68.7157 185.247 68.7396C185.375 68.7443 185.497 68.8932 185.646 69.0135Z" fill="white"/>
<path d="M123.254 73.3839C123.254 73.9368 123.249 74.4302 123.255 74.9232C123.261 75.4506 123.301 75.4862 123.843 75.5138C123.963 75.5198 124.084 75.5252 124.235 75.5323C124.257 75.6257 124.289 75.7151 124.297 75.8065C124.304 75.8822 124.282 75.9598 124.269 76.0707C123.233 76.0707 122.206 76.0707 121.127 76.0707C121.119 75.9148 121.11 75.748 121.101 75.5807C121.196 75.5518 121.25 75.5229 121.306 75.5198C122.15 75.4765 122.151 75.4771 122.152 74.6836C122.153 73.1644 122.153 71.6448 122.152 70.1256C122.152 70.0073 122.146 69.8887 122.152 69.7704C122.166 69.4756 122.026 69.3321 121.722 69.3267C121.542 69.324 121.362 69.3048 121.133 69.2897C121.121 69.1146 121.11 68.9502 121.094 68.7267C121.403 68.7267 121.663 68.7251 121.921 68.7271C122.996 68.7355 124.071 68.7267 125.145 68.7644C125.522 68.7775 125.911 68.8632 126.268 68.9892C126.936 69.2259 127.305 69.7068 127.354 70.4174C127.406 71.1797 127.14 71.7702 126.44 72.1456C126.264 72.2397 126.074 72.3073 125.847 72.4061C125.939 72.5214 126.015 72.6279 126.103 72.7237C126.465 73.1193 126.635 73.5983 126.766 74.1014C126.865 74.4823 126.958 74.8735 127.13 75.2247C127.329 75.6328 127.724 75.6244 127.974 75.2493C128.163 74.9663 128.163 74.9663 128.585 74.981C128.62 75.582 128.41 75.948 127.914 76.1494C127.369 76.3705 126.692 76.2647 126.364 75.8166C126.112 75.4708 125.951 75.0557 125.787 74.6564C125.608 74.2184 125.481 73.7606 125.317 73.3163C125.13 72.8118 124.747 72.5819 124.198 72.5974C123.918 72.6051 123.637 72.5987 123.281 72.5987C123.271 72.8676 123.262 73.0962 123.254 73.3839ZM125.667 69.5899C124.896 69.2736 124.096 69.3583 123.287 69.3741C123.287 70.2826 123.287 71.1356 123.287 72.0374C123.712 72.0374 124.093 72.0485 124.473 72.0337C124.755 72.0226 125.04 71.9964 125.317 71.944C125.689 71.8737 125.994 71.6959 126.157 71.3363C126.417 70.7575 126.258 70.0752 125.667 69.5899Z" fill="white"/>
<path d="M238.684 73.6223C238.684 72.3986 238.685 71.2336 238.684 70.0687C238.683 69.3534 238.682 69.3538 237.959 69.3128C237.88 69.3081 237.8 69.2997 237.688 69.2902C237.666 69.1968 237.634 69.1071 237.627 69.0153C237.621 68.9397 237.643 68.8617 237.652 68.7951C237.705 68.7689 237.741 68.736 237.776 68.7363C239.074 68.7407 240.373 68.7343 241.671 68.7642C242.029 68.7723 242.398 68.8513 242.739 68.9635C243.437 69.1938 243.837 69.6771 243.891 70.4105C243.949 71.196 243.661 71.8003 242.928 72.172C242.767 72.2534 242.594 72.3105 242.385 72.3959C242.471 72.5085 242.543 72.6191 242.631 72.7142C242.984 73.0913 243.161 73.5484 243.286 74.0321C243.375 74.3762 243.46 74.7228 243.574 75.0589C243.652 75.2851 243.776 75.5039 244.07 75.5173C244.331 75.5294 244.471 75.391 244.551 75.1527C244.648 74.8656 244.899 74.9651 245.107 74.9449C245.167 75.5469 244.975 75.9099 244.504 76.1243C243.971 76.3677 243.295 76.2776 242.936 75.8605C242.733 75.6242 242.577 75.3341 242.46 75.0454C242.303 74.6616 242.209 74.2542 242.082 73.8586C241.732 72.7622 241.474 72.5791 240.305 72.5972C240.166 72.5996 240.027 72.6167 239.816 72.6322C239.806 72.9128 239.791 73.1807 239.788 73.4482C239.784 73.942 239.782 74.4354 239.789 74.9291C239.795 75.4555 239.833 75.4881 240.381 75.514C240.501 75.5197 240.621 75.5264 240.773 75.5345C240.795 75.6306 240.826 75.7203 240.833 75.8118C240.839 75.8864 240.816 75.963 240.801 76.0716C239.762 76.0716 238.736 76.0716 237.657 76.0716C237.65 75.9109 237.642 75.7452 237.633 75.5677C237.987 75.5183 238.299 75.475 238.684 75.4215C238.684 74.8175 238.684 74.2495 238.684 73.6223ZM242.671 71.3835C242.711 71.0558 242.796 70.7261 242.78 70.4011C242.761 69.9998 242.518 69.6989 242.122 69.5558C241.366 69.2825 240.59 69.3457 239.811 69.3837C239.811 70.2915 239.811 71.1301 239.811 71.9613C240.42 72.0786 241.486 72.0863 241.94 71.9179C242.191 71.8245 242.399 71.6215 242.671 71.3835Z" fill="white"/>
<path d="M252.599 68.74C253.379 68.7403 254.105 68.7403 254.86 68.7403C254.86 68.9279 254.86 69.0778 254.86 69.2536C254.783 69.2734 254.708 69.3134 254.635 69.308C254.227 69.2784 253.885 69.4052 253.579 69.6693C252.671 70.4552 251.754 71.2326 250.796 72.0523C250.971 72.2409 251.126 72.4153 251.29 72.5827C252.016 73.3259 252.758 74.0552 253.468 74.8131C253.878 75.2511 254.28 75.6551 255 75.4884C255 75.718 255 75.8826 255 76.0773C253.986 76.0773 253.002 76.0773 251.966 76.0773C251.958 75.9058 251.95 75.7438 251.94 75.5415C252.236 75.5237 252.489 75.5082 252.751 75.4924C252.568 75.0891 250.65 73.0697 250.056 72.6415C249.776 72.7185 249.705 72.9165 249.708 73.1793C249.717 73.7709 249.704 74.3631 249.713 74.9547C249.721 75.4487 249.757 75.4776 250.271 75.5136C250.39 75.522 250.509 75.528 250.668 75.5375C250.668 75.719 250.668 75.8823 250.668 76.0762C249.664 76.0762 248.679 76.0762 247.641 76.0762C247.633 75.9095 247.626 75.7442 247.619 75.6003C247.698 75.5586 247.731 75.527 247.767 75.5247C248.606 75.4689 248.607 75.4696 248.608 74.669C248.609 73.1497 248.609 71.6309 248.608 70.112C248.608 69.3685 248.606 69.3692 247.852 69.3104C247.795 69.3057 247.738 69.2848 247.651 69.2647C247.637 69.1722 247.612 69.0795 247.611 68.9864C247.61 68.9131 247.639 68.8398 247.658 68.7487C248.667 68.7487 249.655 68.7487 250.675 68.7487C250.675 68.9306 250.675 69.0949 250.675 69.2388C250.622 69.2697 250.606 69.2865 250.587 69.2889C249.712 69.3974 249.712 69.3971 249.711 70.2387C249.71 70.8064 249.711 71.3737 249.711 71.9589C250.135 71.7949 252.211 70.0384 252.769 69.3803C252.659 69.3547 252.574 69.3285 252.488 69.3168C252.389 69.3033 252.287 69.3023 252.13 69.2922C252.116 69.1242 252.103 68.9612 252.087 68.7662C252.272 68.7558 252.408 68.7477 252.599 68.74Z" fill="white"/>
<path d="M234.378 71.9984C234.352 72.4841 234.369 72.9251 234.283 73.3459C233.974 74.8443 233.059 75.8197 231.507 76.1366C230.108 76.4223 228.788 76.227 227.713 75.2271C226.722 74.3035 226.509 73.1053 226.648 71.8438C226.799 70.4735 227.459 69.3953 228.83 68.882C230.282 68.3386 231.706 68.4276 232.991 69.3402C233.882 69.9731 234.252 70.9054 234.378 71.9984ZM233.049 71.2425C233.019 71.1484 232.995 71.0526 232.959 70.9605C232.522 69.8141 231.635 69.2178 230.412 69.2471C229.222 69.2753 228.332 69.9505 227.979 71.1172C227.722 71.9682 227.725 72.8307 227.974 73.6817C228.326 74.885 229.253 75.5478 230.53 75.5397C231.765 75.532 232.67 74.8608 233.018 73.674C233.245 72.9026 233.257 72.1218 233.049 71.2425Z" fill="white"/>
<path d="M196.187 73.7412C196.187 74.3123 196.187 74.8242 196.187 75.367C196.348 75.3919 196.482 75.4295 196.615 75.4305C197.426 75.4362 198.237 75.4383 199.048 75.4322C199.614 75.4278 199.658 75.3811 199.697 74.8208C199.712 74.6064 199.722 74.392 199.737 74.1268C199.944 74.1127 200.135 74.0995 200.368 74.0837C200.368 74.766 200.368 75.4043 200.368 76.0752C198.265 76.0752 196.188 76.0752 194.082 76.0752C194.082 75.8886 194.082 75.7206 194.082 75.5435C194.192 75.5314 194.271 75.5179 194.351 75.5149C195.066 75.4873 195.08 75.4779 195.082 74.7587C195.085 73.2005 195.084 71.6419 195.083 70.0837C195.082 69.3621 195.08 69.3631 194.317 69.3107C194.258 69.3066 194.202 69.2804 194.114 69.2562C194.114 69.109 194.114 68.9601 194.114 68.7749C196.199 68.7749 198.274 68.7749 200.371 68.7749C200.371 69.3755 200.371 69.9446 200.371 70.5885C200.166 70.5976 199.961 70.6067 199.717 70.6178C199.699 70.3133 199.689 70.0622 199.669 69.8115C199.649 69.5567 199.501 69.4058 199.24 69.4041C198.251 69.397 197.264 69.4014 196.232 69.4014C196.232 70.2803 196.232 71.0984 196.232 71.9595C196.909 71.9595 197.588 71.9595 198.309 71.9595C198.368 71.7871 198.429 71.6076 198.496 71.411C198.622 71.411 198.739 71.411 198.9 71.411C198.9 72.0167 198.9 72.6139 198.9 73.2307C198.765 73.2381 198.649 73.2445 198.504 73.2526C198.437 73.0556 198.375 72.8754 198.302 72.662C197.614 72.662 196.936 72.662 196.187 72.662C196.187 73.023 196.187 73.3524 196.187 73.7412Z" fill="white"/>
<path d="M173.561 75.3842C173.696 74.9634 173.781 74.5658 173.874 74.1268C174.038 74.1268 174.227 74.1268 174.45 74.1268C174.45 74.7654 174.45 75.3902 174.45 76.0154C173.985 76.1391 170.128 76.1831 168.157 76.0843C168.157 75.9085 168.157 75.7294 168.157 75.5126C168.335 75.5126 168.496 75.5207 168.656 75.5112C169.074 75.4864 169.142 75.4323 169.144 75.0081C169.152 73.2704 169.152 71.5327 169.144 69.795C169.143 69.3746 169.093 69.3453 168.641 69.3151C168.502 69.306 168.362 69.299 168.202 69.2899C168.182 69.1974 168.157 69.1255 168.152 69.0522C168.148 68.9756 168.163 68.8983 168.173 68.781C170.264 68.781 172.341 68.781 174.445 68.781C174.445 69.3742 174.445 69.9591 174.445 70.5933C174.234 70.6034 174.043 70.6121 173.799 70.6236C173.781 70.352 173.761 70.1227 173.752 69.8932C173.741 69.5914 173.61 69.4008 173.278 69.4001C172.308 69.3974 171.337 69.3991 170.32 69.3991C170.32 70.2649 170.32 71.085 170.32 71.9831C170.982 72.0258 171.661 71.9912 172.36 72.0016C172.442 71.7915 172.51 71.6144 172.588 71.4138C172.697 71.4138 172.814 71.4138 172.974 71.4138C172.974 72.0137 172.974 72.6127 172.974 73.2334C172.84 73.2334 172.724 73.2334 172.583 73.2334C172.516 73.0533 172.449 72.8738 172.37 72.6604C171.704 72.6604 171.042 72.6604 170.293 72.6604C170.287 73.1003 170.277 73.5447 170.274 73.9887C170.27 74.4411 170.273 74.8935 170.273 75.434C171.376 75.4259 172.442 75.4602 173.561 75.3842Z" fill="white"/>
<path d="M115.262 72.6211C114.738 72.6211 114.273 72.6211 113.729 72.6211C113.721 73.1004 113.712 73.5437 113.708 73.9873C113.705 74.4387 113.708 74.8901 113.708 75.3758C113.853 75.3983 113.966 75.4306 114.08 75.4313C114.932 75.4353 115.784 75.44 116.636 75.4306C117.092 75.4256 117.163 75.3577 117.211 74.9241C117.239 74.6723 117.241 74.4179 117.257 74.1181C117.474 74.1087 117.665 74.1003 117.894 74.0902C117.894 74.7607 117.894 75.3852 117.894 76.0084C117.444 76.1374 113.276 76.1858 111.599 76.0783C111.585 75.924 111.57 75.761 111.558 75.6239C111.636 75.5724 111.666 75.5355 111.7 75.5328C111.861 75.5203 112.023 75.515 112.185 75.5116C112.461 75.5059 112.588 75.361 112.597 75.1029C112.602 74.9449 112.607 74.787 112.607 74.6293C112.607 73.1289 112.607 71.6282 112.607 70.1278C112.607 70.0095 112.612 69.8905 112.603 69.7725C112.571 69.3901 112.525 69.345 112.124 69.3178C111.984 69.308 111.842 69.3161 111.644 69.3161C111.626 69.1339 111.609 68.9699 111.589 68.7703C113.698 68.7703 115.759 68.7703 117.862 68.7703C117.862 69.3773 117.862 69.9749 117.862 70.5883C117.642 70.5883 117.45 70.5883 117.234 70.5883C117.214 70.3019 117.2 70.0482 117.176 69.7957C117.154 69.5736 117.035 69.4102 116.796 69.4079C115.787 69.3991 114.778 69.4042 113.739 69.4042C113.739 70.2858 113.739 71.1059 113.739 71.9643C114.441 71.9643 115.119 71.9643 115.799 71.9643C115.995 71.7754 115.82 71.2074 116.421 71.445C116.421 72.01 116.421 72.5922 116.421 73.1743C115.997 73.257 115.997 73.257 115.821 72.6785C115.67 72.6611 115.494 72.6412 115.262 72.6211Z" fill="white"/>
<path d="M163.023 69.1543C163.131 69.1859 163.248 69.2171 163.263 69.1919C163.33 69.076 163.37 68.9446 163.42 68.8155C163.638 68.8155 163.838 68.8155 164.079 68.8155C164.079 69.4931 164.079 70.1522 164.079 70.852C163.875 70.8631 163.681 70.8735 163.488 70.8839C163.442 70.815 163.394 70.772 163.381 70.7209C163.147 69.808 162.482 69.4064 161.583 69.2837C159.966 69.0635 158.699 69.9304 158.363 71.4869C158.214 72.1746 158.233 72.8616 158.414 73.5402C158.727 74.7132 159.665 75.4775 160.913 75.5192C161.433 75.5367 161.971 75.4926 162.475 75.3747C163.145 75.2184 163.385 74.8433 163.397 74.163C163.402 73.8931 163.398 73.6232 163.398 73.2999C162.882 73.276 162.444 73.2562 161.965 73.234C161.965 73.0363 161.965 72.8548 161.965 72.6804C162.027 72.6602 162.065 72.6367 162.103 72.6367C163.034 72.6347 163.966 72.635 164.943 72.635C164.956 72.8246 164.968 72.9913 164.981 73.1856C164.744 73.2394 164.536 73.2864 164.279 73.3442C164.244 73.8383 164.193 74.324 164.181 74.811C164.173 75.1196 164.034 75.3212 163.794 75.502C162.293 76.6368 159.419 76.4771 158.096 75.1619C157.222 74.2934 157.002 73.1994 157.092 72.0401C157.314 69.1684 160.453 67.625 163.023 69.1543Z" fill="white"/>
<path d="M148.132 72.5041C148.631 71.2292 149.114 69.9974 149.603 68.7507C150.061 68.7507 150.5 68.7507 150.981 68.7507C151.264 69.466 151.549 70.1792 151.83 70.8941C152.337 72.1831 152.857 73.467 153.339 74.7647C153.524 75.2632 153.755 75.6248 154.425 75.5112C154.439 75.7075 154.451 75.8705 154.465 76.0715C153.472 76.0715 152.53 76.0715 151.542 76.0715C151.542 75.9031 151.542 75.7415 151.542 75.567C151.818 75.5317 152.069 75.4998 152.41 75.4568C152.173 74.7462 151.957 74.1013 151.737 73.4401C150.708 73.4401 149.723 73.4401 148.678 73.4401C148.445 74.1002 148.212 74.76 147.958 75.481C148.307 75.5095 148.562 75.5304 148.871 75.5556C148.884 75.7152 148.897 75.8779 148.913 76.0752C147.981 76.0752 147.097 76.0752 146.159 76.0752C146.15 75.9072 146.141 75.7448 146.131 75.5583C146.273 75.5381 146.37 75.5099 146.465 75.5139C146.826 75.5284 147.018 75.3469 147.138 75.0329C147.457 74.2014 147.789 73.3753 148.132 72.5041ZM151.312 72.7951C151.556 72.6919 151.398 72.5346 151.353 72.412C151.031 71.5209 150.701 70.6329 150.367 69.7463C150.332 69.6535 150.255 69.5759 150.161 69.4377C149.739 70.5866 149.343 71.6668 148.926 72.8012C149.751 72.8012 150.478 72.8012 151.312 72.7951Z" fill="white"/>
<path d="M139.246 75.6792C139.439 75.5915 139.623 75.5317 139.811 75.5122C140.119 75.4803 140.298 75.3556 140.296 75.0302C140.286 73.1951 140.28 71.3596 140.271 69.5241C140.271 69.5079 140.249 69.4921 140.196 69.4216C139.68 69.4216 139.121 69.4152 138.562 69.4242C138.261 69.4293 138.139 69.6004 138.148 69.8891C138.159 70.2191 138.151 70.5499 138.151 70.9119C137.937 70.9119 137.763 70.9119 137.553 70.9119C137.553 70.199 137.553 69.4989 137.553 68.7625C139.746 68.7625 141.926 68.7625 144.128 68.7625C144.128 69.4733 144.128 70.162 144.128 70.9115C143.944 70.9216 143.755 70.9314 143.503 70.9448C143.503 70.5438 143.497 70.1929 143.505 69.8417C143.511 69.5711 143.371 69.4263 143.109 69.4202C142.568 69.4078 142.026 69.4165 141.429 69.4165C141.417 69.6662 141.399 69.877 141.399 70.0877C141.396 71.6473 141.397 73.2072 141.398 74.7667C141.398 75.4809 141.399 75.4803 142.129 75.5155C142.208 75.5196 142.286 75.5327 142.369 75.5421C142.397 75.605 142.437 75.6567 142.438 75.7092C142.441 75.8221 142.425 75.9357 142.414 76.0762C141.359 76.0762 140.333 76.0762 139.273 76.0762C139.261 75.9525 139.249 75.8392 139.246 75.6792Z" fill="white"/>
<path d="M203.981 68.7271C206.078 68.7274 208.12 68.7274 210.198 68.7274C210.198 69.4809 210.198 70.1784 210.198 70.9077C209.984 70.9077 209.794 70.9077 209.559 70.9077C209.559 70.541 209.547 70.2086 209.563 69.8776C209.577 69.5841 209.454 69.4211 209.153 69.4167C208.611 69.409 208.07 69.4144 207.468 69.4144C207.468 69.6497 207.468 69.8426 207.468 70.0359C207.468 71.6136 207.468 73.1916 207.469 74.7693C207.469 75.4849 207.47 75.4845 208.193 75.5161C208.272 75.5195 208.352 75.5316 208.471 75.5437C208.471 75.7158 208.471 75.8811 208.471 76.0761C207.426 76.0761 206.403 76.0761 205.343 76.0761C205.334 75.9026 205.326 75.7548 205.318 75.6065C205.396 75.5696 205.447 75.5302 205.501 75.5228C205.601 75.5094 205.704 75.5212 205.805 75.5117C206.285 75.4681 206.363 75.3978 206.368 74.931C206.377 74.1028 206.371 73.2743 206.371 72.4461C206.371 71.5783 206.373 70.7104 206.369 69.8426C206.368 69.7095 206.341 69.5764 206.322 69.4141C205.753 69.4141 205.209 69.407 204.665 69.4167C204.346 69.4225 204.194 69.5824 204.214 69.9088C204.233 70.2217 204.218 70.5363 204.218 70.8973C204.007 70.8973 203.822 70.8973 203.608 70.8973C203.608 70.1992 203.608 69.5152 203.608 68.7872C203.707 68.7687 203.817 68.7479 203.981 68.7271Z" fill="white"/>
<path d="M131.41 75.6728C131.569 75.5874 131.716 75.5356 131.867 75.5158C132.305 75.459 132.371 75.3958 132.396 74.9558C132.402 74.8574 132.398 74.7582 132.398 74.6597C132.398 73.1587 132.398 71.6579 132.397 70.1572C132.397 70.0386 132.394 69.9202 132.396 69.8016C132.4 69.4924 132.259 69.322 131.927 69.3153C131.769 69.3119 131.611 69.2904 131.427 69.2749C131.427 69.0975 131.427 68.9472 131.427 68.7627C132.426 68.7627 133.413 68.7627 134.456 68.7627C134.467 68.9217 134.477 69.0823 134.487 69.2386C134.382 69.2729 134.327 69.3021 134.269 69.3079C133.5 69.3818 133.498 69.3811 133.498 70.1001C133.497 71.6599 133.497 73.2202 133.498 74.7801C133.498 75.4778 133.5 75.4771 134.237 75.5185C134.296 75.5218 134.354 75.54 134.453 75.5591C134.453 75.7212 134.453 75.8838 134.453 76.0761C133.442 76.0761 132.458 76.0761 131.435 76.0761C131.422 75.9453 131.411 75.8331 131.41 75.6728Z" fill="white"/>
<path d="M195.264 25.6577C195.521 25.1377 195.731 24.6423 196.009 24.1875C196.214 23.8534 196.479 23.5392 196.772 23.274C197.548 22.5715 198.413 22.5413 199.24 23.1933C199.566 23.4508 199.858 23.7671 200.103 24.1001C200.785 25.0251 201.233 26.0597 201.466 27.1742C201.838 28.9522 200.889 30.9921 199.219 32.0101C198.877 32.2182 198.51 32.4007 198.132 32.5335C196.819 32.9939 195.508 32.3738 195.061 31.0815C194.521 29.5206 194.495 27.9479 195.017 26.3739C195.091 26.1491 195.169 25.9245 195.264 25.6577Z" fill="white"/>
<path d="M148.184 39.3235C149.563 37.7888 151.126 36.551 152.979 35.6744C155.013 34.7118 157.153 34.4237 159.379 34.7699C160.136 34.8879 160.881 35.0748 161.716 35.2475C161.783 35.1551 161.907 34.9837 162.033 34.8139C162.558 34.1091 163.069 33.8917 163.924 34.1337C164.423 34.2745 164.911 34.502 165.351 34.7716C166.293 35.3487 167.04 36.1228 167.558 37.0921C167.835 37.6104 167.872 38.0957 167.59 38.6641C166.267 41.3311 165.561 44.1564 165.532 47.1209C165.522 48.1235 165.635 49.1288 165.73 50.1294C165.759 50.435 165.884 50.7442 166.022 51.0248C166.202 51.3892 166.424 51.4769 166.821 51.3428C167.144 51.2342 167.482 51.1075 167.743 50.9035C168.517 50.2985 169.262 49.6592 170.001 49.0139C170.141 48.8912 170.22 48.6875 170.294 48.5084C170.576 47.8261 170.909 47.1666 171.425 46.6282C171.752 46.2874 172.127 45.959 172.543 45.7361C173.347 45.3059 174.127 45.5489 174.544 46.3415C174.792 46.8117 174.934 47.3337 175.136 47.8277C175.427 48.5413 175.669 49.2818 176.039 49.9553C176.828 51.3919 178.147 52.1531 179.748 52.4903C180.26 52.5978 180.718 52.5037 181.064 52.0853C181.413 51.6631 181.452 51.1431 181.077 50.6665C180.572 50.0256 180.035 49.4044 179.467 48.8166C178.744 48.0694 177.965 47.375 177.23 46.6379C176.407 45.8108 175.69 44.9049 175.245 43.8233C173.998 40.7923 175.223 37.3109 178.148 35.581C179.778 34.618 181.56 34.2584 183.45 34.3286C184.45 34.3656 185.433 34.4926 186.369 34.8482C187.797 35.3904 188.902 36.2801 189.092 37.8346C189.374 40.148 188.64 42.1368 186.715 43.5998C186.101 44.0664 185.374 44.3931 184.656 44.8092C184.792 44.955 184.972 45.1342 185.136 45.3268C185.795 46.1018 186.487 46.8534 187.096 47.6637C189.14 50.3798 187.966 53.9765 185.247 55.4833C184.121 56.1078 182.915 56.4933 181.643 56.6849C179.461 57.0136 177.279 57.0486 175.113 56.5599C173.368 56.1663 171.831 55.4242 170.728 53.9873C170.706 53.9594 170.662 53.948 170.596 53.9107C170.35 54.0885 170.095 54.2784 169.834 54.4605C168.385 55.4742 166.825 56.2527 165.051 56.5605C164.633 56.6328 164.206 56.6738 163.782 56.6889C162.907 56.7202 162.214 56.3572 161.674 55.6991C161.158 55.0706 160.854 54.3419 160.62 53.5813C160.523 53.2663 160.438 52.9477 160.326 52.5508C160.159 52.7628 160.035 52.9097 159.923 53.0657C158.178 55.5058 155.762 56.7434 152.728 56.8933C151.585 56.9501 150.458 56.901 149.358 56.5602C147.389 55.9498 145.973 54.7415 145.145 52.8926C145.074 52.7319 145.002 52.5713 144.907 52.3588C144.809 52.4308 144.727 52.4734 144.668 52.5363C142.536 54.7694 139.845 55.9643 136.816 56.5017C135.096 56.8069 133.358 56.9551 131.608 56.7572C129.88 56.5622 128.282 56.0409 126.93 54.9388C125.405 53.6955 124.661 52.0506 124.609 50.1573C124.5 46.2158 125.485 42.5623 127.943 39.3669C129.603 37.207 131.717 35.6277 134.427 34.8997C136.04 34.4664 137.668 34.3898 139.295 34.8355C141.395 35.4105 142.578 36.9593 142.552 39.0802C142.53 40.8737 141.79 42.3233 140.341 43.4308C139.277 44.2442 138.07 44.8038 136.823 45.2878C135.279 45.8871 133.729 46.4705 132.183 47.0648C131.976 47.1441 131.78 47.2463 131.559 47.3471C131.559 47.8597 131.511 48.3733 131.569 48.8754C131.681 49.8592 132.266 50.5375 133.169 50.9603C134.399 51.536 135.704 51.6207 137.035 51.4886C139.275 51.2665 141.179 50.3082 142.882 48.9265C143.333 48.5601 143.745 48.1474 144.196 47.781C144.562 47.4832 144.711 47.1152 144.787 46.6655C145.194 44.2741 146.075 42.0655 147.551 40.0983C147.742 39.8432 147.954 39.6025 148.184 39.3235ZM160.391 40.4925C160.539 39.6082 160.687 38.7239 160.843 37.7946C159.564 38.0218 158.422 38.4201 157.361 39.0069C153.352 41.2246 151.306 44.5446 151.486 49.075C151.504 49.5399 151.622 50.0172 151.784 50.4568C152.159 51.4705 152.958 51.9884 154.07 51.9982C155.279 52.0086 156.344 51.5996 157.258 50.8568C158.972 49.4653 159.831 47.6493 159.991 45.4975C160.112 43.8637 160.25 42.2312 160.391 40.4925ZM135.499 41.8531C135.726 41.6292 136.005 41.436 136.168 41.1741C136.384 40.8279 136.583 40.4414 136.656 40.0488C136.804 39.2519 136.391 38.7636 135.562 38.6567C134.654 38.5397 133.987 38.9545 133.483 39.6321C132.508 40.9432 132.178 42.4772 131.987 44.1047C133.136 43.3723 134.284 42.6399 135.499 41.8531ZM184.486 39.1884C184.028 38.367 182.927 38.0231 182.036 38.4231C181.147 38.8224 180.706 39.8959 181.125 40.7675C181.494 41.5381 182.078 42.167 182.704 42.8312C183.394 42.0638 184.027 41.3318 184.406 40.4266C184.561 40.0572 184.651 39.6754 184.486 39.1884Z" fill="white"/>
<path d="M241.851 56.5174C239.826 56.828 237.851 57.0051 235.867 56.6307C234.175 56.3114 232.638 55.6678 231.472 54.3942C230.966 53.8417 230.58 53.1853 230.115 52.5416C230.052 52.5964 229.933 52.6892 229.826 52.7944C228.192 54.409 226.326 55.6795 224.069 56.3171C223.356 56.5191 222.602 56.6199 221.859 56.6808C220.815 56.7662 220.025 56.2791 219.437 55.4644C218.964 54.8093 218.686 54.0696 218.474 53.3029C218.424 53.1204 218.366 52.9399 218.29 52.6865C218.159 52.8451 218.067 52.9439 217.99 53.0522C216.182 55.5656 213.679 56.7944 210.552 56.9016C209.531 56.9366 208.523 56.8935 207.539 56.6105C205.516 56.0287 204.046 54.8218 203.182 52.9355C203.118 52.7937 203.044 52.6559 202.952 52.4717C202.774 52.6609 202.627 52.8212 202.475 52.9775C200.883 54.6171 199.032 55.8617 196.759 56.4193C196.116 56.5773 195.441 56.6647 194.777 56.6831C193.245 56.7255 192.087 56.0593 191.31 54.7734C190.671 53.7153 190.38 52.548 190.214 51.3484C189.838 48.6451 189.996 45.9529 190.411 43.266C190.685 41.4856 191.056 39.7254 191.702 38.0375C192.034 37.1727 192.443 36.3267 192.914 35.5261C193.198 35.0414 193.617 34.5984 194.065 34.2445C195.054 33.4637 196.175 33.615 196.935 34.6135C197.796 35.7449 198.182 37.0456 198.153 38.4465C198.122 39.9533 197.811 41.4255 197.46 42.8872C197.026 44.6931 196.557 46.4906 196.134 48.2989C196.008 48.834 195.943 49.3913 195.93 49.9405C195.906 50.9296 196.863 51.6415 197.837 51.3414C198.269 51.2076 198.705 50.9767 199.046 50.6856C200.005 49.8658 200.899 48.9752 201.85 48.1456C202.467 47.6072 202.747 46.9686 202.907 46.175C203.82 41.6567 206.316 38.2086 210.463 35.9479C213.049 34.5389 215.801 34.3063 218.655 34.993C218.869 35.0444 219.082 35.1009 219.363 35.1722C219.476 34.6986 219.585 34.2469 219.692 33.7948C220.284 31.2918 220.954 28.8089 222.024 26.4538C222.441 25.5383 222.964 24.663 223.503 23.8076C223.751 23.4134 224.123 23.0749 224.494 22.7758C225.141 22.2545 225.871 22.2273 226.591 22.6356C226.885 22.8023 227.161 23.0188 227.396 23.2591C228.207 24.0913 228.75 25.0802 229.053 26.1849C229.291 27.0551 229.11 27.924 228.867 28.7548C228.64 29.5272 228.335 30.2912 227.957 31.0051C226.456 33.8415 225.204 36.7657 224.495 39.8908C224.022 41.976 223.77 44.0935 223.57 46.2174C223.455 47.4381 223.37 48.6602 223.573 49.8789C223.627 50.2073 223.708 50.5411 223.841 50.8456C224.073 51.375 224.429 51.5417 224.964 51.2997C225.491 51.0617 226.017 50.7706 226.452 50.4006C227.383 49.609 228.255 48.7526 229.149 47.9204C229.281 47.7978 229.392 47.6532 229.531 47.539C229.778 47.3349 229.871 47.0818 229.923 46.7713C230.534 43.0936 232.062 39.8706 234.956 37.3508C236.595 35.9237 238.494 34.9826 240.683 34.6576C241.937 34.4717 243.19 34.4882 244.422 34.8381C246.651 35.4706 247.864 37.2641 247.64 39.5187C247.47 41.2191 246.669 42.5444 245.279 43.5561C244.196 44.3439 242.978 44.8834 241.733 45.3674C240.284 45.931 238.826 46.4755 237.374 47.0328C237.132 47.1255 236.898 47.2398 236.65 47.3487C236.65 47.8495 236.616 48.3228 236.657 48.79C236.745 49.7781 237.298 50.4789 238.192 50.9195C239.43 51.5296 240.756 51.6227 242.11 51.4913C244.439 51.2647 246.411 50.2591 248.145 48.7866C248.924 48.1258 249.638 47.3931 250.385 46.6973C250.634 46.4658 250.879 46.2238 251.157 46.0292C251.589 45.7263 251.926 45.8393 252.082 46.3404C252.28 46.9766 252.267 47.6327 252.129 48.2757C251.761 49.9889 250.852 51.4203 249.629 52.674C247.676 54.6772 245.232 55.8012 242.499 56.3941C242.301 56.4371 242.101 56.4721 241.851 56.5174ZM209.488 47.7346C209.439 48.6461 209.446 49.5519 209.785 50.4221C210.188 51.4583 210.974 51.9927 212.111 51.9995C213.138 52.0055 214.073 51.7033 214.904 51.1296C216.685 49.9001 217.664 48.1802 217.85 46.0977C218.09 43.4028 218.318 40.7099 218.813 38.0449C218.825 37.9753 218.795 37.8983 218.785 37.8304C218.716 37.8247 218.674 37.8113 218.637 37.8194C215.827 38.4368 213.485 39.7943 211.699 42.0106C210.372 43.6579 209.675 45.5479 209.488 47.7346ZM240.635 38.6502C239.888 38.5692 239.257 38.8257 238.814 39.3883C238.437 39.8669 238.071 40.3882 237.858 40.9475C237.521 41.8281 237.314 42.7558 237.059 43.6656C237.027 43.7813 237.038 43.9086 237.022 44.1174C238.04 43.4939 238.988 42.9312 239.914 42.3377C240.301 42.0903 240.69 41.8177 240.992 41.4833C241.291 41.1522 241.562 40.7543 241.703 40.3402C242.025 39.3964 241.549 38.7742 240.635 38.6502Z" fill="white"/>
<path d="M110.713 22.2872C112.353 21.8735 113.963 21.7538 115.582 22.0758C118.841 22.7242 120.803 24.9952 121.028 28.2538C121.26 31.588 119.084 34.0218 116.065 34.8194C115.87 34.8708 115.673 34.9138 115.37 34.9861C115.578 35.1662 115.734 35.3007 115.889 35.4351C116.784 36.2078 117.728 36.9332 118.564 37.7617C121.548 40.7201 122.399 44.2745 121.399 48.2402C120.8 50.6162 119.262 52.4231 117.274 53.866C115.03 55.4948 112.49 56.4198 109.72 56.7599C107.743 57.0029 105.794 56.8974 103.888 56.293C100.316 55.1607 98.1741 52.4033 98.0109 48.7524C97.8874 45.9906 98.8127 43.5898 100.668 41.5318C101.114 41.0367 101.692 40.6374 102.257 40.264C102.975 39.7901 103.808 39.7064 104.655 39.813C105.449 39.9124 105.806 40.2751 105.709 41.0408C105.575 42.0948 105.369 43.1421 105.147 44.183C104.914 45.2703 104.738 46.3577 104.827 47.4709C104.851 47.765 104.892 48.0604 104.958 48.3481C105.328 49.95 106.432 50.8125 108.113 50.8444C109.098 50.8629 110.056 50.7452 110.975 50.39C112.785 49.6892 113.712 48.3649 113.843 46.4948C113.931 45.2374 113.624 44.0688 112.974 42.9811C112.333 41.9099 111.45 41.0394 110.535 40.1964C109.46 39.2063 108.35 38.2497 107.311 37.2252C106.07 36.0021 105.094 34.5949 104.666 32.8995C104.046 30.4443 104.261 28.075 105.622 25.8748C106.577 24.3308 107.985 23.2959 109.689 22.628C110.008 22.503 110.339 22.4079 110.713 22.2872ZM115.407 32.0152C115.991 31.0607 116.478 30.0715 116.574 28.9408C116.647 28.073 116.31 27.4001 115.552 26.9417C114.859 26.5229 114.089 26.3891 113.283 26.4166C112.608 26.4402 112.019 26.6744 111.524 27.1158C110.498 28.0283 110.288 29.445 111.012 30.616C111.695 31.7231 112.585 32.6639 113.559 33.5324C113.672 33.6329 113.802 33.7159 113.995 33.8605C114.467 33.2467 114.912 32.6669 115.407 32.0152Z" fill="white"/>
</svg>
